<svg viewBox="0 0 24 24" xmlns="http://www.w3.org/2000/svg">
  <path d="M11.77 11.24H9.956V8.202h2.152c1.17 0 1.834 0.522 1.834 1.466 0 1.008 -0.773 1.572 -2.174 1.572zm0.324 1.206H9.957v3.348h2.231c1.459 0 2.232 -0.585 2.232 -1.685s-0.795 -1.663 -2.326 -1.663zM24 11.39v1.218c-1.128 0.108 -1.817 0.944 -2.226 2.268 -0.407 1.319 -0.463 2.937 -0.42 4.186 0.045 1.3 -0.968 2.5 -2.337 2.5H4.985c-1.37 0 -2.383 -1.2 -2.337 -2.5 0.043 -1.249 -0.013 -2.867 -0.42 -4.186 -0.41 -1.324 -1.1 -2.16 -2.228 -2.268V11.39c1.128 -0.108 1.819 -0.944 2.227 -2.268 0.408 -1.319 0.464 -2.937 0.42 -4.186 -0.045 -1.3 0.968 -2.5 2.338 -2.5h14.032c1.37 0 2.382 1.2 2.337 2.5 -0.043 1.249 0.013 2.867 0.42 4.186 0.409 1.324 1.098 2.16 2.226 2.268zm-7.927 2.817c0 -1.354 -0.953 -2.333 -2.368 -2.488v-0.057c1.04 -0.169 1.856 -1.135 1.856 -2.213 0 -1.537 -1.213 -2.538 -3.062 -2.538h-4.16v10.172h4.181c2.218 0 3.553 -1.086 3.553 -2.876z" fill="currentColor" stroke-width="1"></path>
</svg>