<svg viewBox="0 0 24 24" xmlns="http://www.w3.org/2000/svg">
  <path d="M21.038 4.9 13.461 0.402C13.009 0.134 12.505 0 12 0c-0.505 0 -1.009 0.134 -1.462 0.403L2.961 4.9C2.057 5.437 1.5 6.429 1.5 7.503v8.995c0 1.073 0.557 2.066 1.462 2.603l7.577 4.497c0.452 0.268 0.956 0.402 1.461 0.402 0.505 0 1.009 -0.134 1.461 -0.402l7.577 -4.497c0.904 -0.537 1.462 -1.529 1.462 -2.603V7.503c0 -1.074 -0.557 -2.066 -1.462 -2.603zM15.17 18.946l0.013 0.646c0.001 0.078 -0.05 0.167 -0.111 0.198l-0.383 0.22c-0.061 0.031 -0.111 -0.007 -0.112 -0.085l-0.007 -0.635c-0.328 0.136 -0.66 0.169 -0.872 0.084 -0.04 -0.016 -0.057 -0.075 -0.041 -0.142l0.139 -0.584c0.011 -0.046 0.036 -0.092 0.069 -0.121 0.012 -0.011 0.024 -0.02 0.036 -0.026 0.022 -0.011 0.043 -0.014 0.062 -0.006 0.229 0.077 0.521 0.041 0.802 -0.101 0.357 -0.181 0.596 -0.545 0.592 -0.907 -0.003 -0.328 -0.181 -0.465 -0.613 -0.468 -0.55 0.001 -1.064 -0.107 -1.072 -0.917 -0.007 -0.667 0.34 -1.361 0.889 -1.8l-0.007 -0.652c-0.001 -0.08 0.048 -0.168 0.111 -0.2l0.37 -0.236c0.061 -0.031 0.111 0.007 0.112 0.087l0.006 0.653c0.273 -0.109 0.511 -0.138 0.726 -0.088 0.047 0.012 0.067 0.076 0.048 0.151l-0.144 0.578c-0.011 0.044 -0.036 0.088 -0.065 0.116 -0.012 0.012 -0.025 0.021 -0.038 0.028 -0.019 0.01 -0.038 0.013 -0.057 0.009 -0.098 -0.022 -0.332 -0.073 -0.699 0.113 -0.385 0.195 -0.52 0.53 -0.517 0.778 0.003 0.297 0.155 0.387 0.681 0.396 0.7 0.012 1.003 0.318 1.01 1.023 0.007 0.689 -0.362 1.433 -0.928 1.888zm3.973 -1.087c0 0.06 -0.008 0.116 -0.058 0.145l-1.916 1.164c-0.05 0.029 -0.09 0.004 -0.09 -0.056v-0.494c0 -0.06 0.037 -0.093 0.087 -0.122l1.887 -1.129c0.05 -0.029 0.09 -0.004 0.09 0.056v0.436zm1.316 -11.062 -7.168 4.427c-0.894 0.523 -1.553 1.109 -1.553 2.187v8.833c0 0.645 0.26 1.063 0.66 1.184 -0.131 0.023 -0.264 0.039 -0.398 0.039 -0.42 0 -0.833 -0.114 -1.197 -0.33L3.226 18.64c-0.741 -0.44 -1.201 -1.261 -1.201 -2.142V7.503c0 -0.881 0.46 -1.702 1.201 -2.142L10.803 0.863c0.363 -0.216 0.777 -0.33 1.197 -0.33 0.419 0 0.833 0.114 1.197 0.33l7.577 4.498c0.624 0.371 1.046 1.013 1.164 1.732 -0.252 -0.536 -0.818 -0.682 -1.479 -0.296z" fill="currentColor"></path>
</svg>