<svg xmlns="http://www.w3.org/2000/svg" viewBox="0 37 38.5 20">
  <path d="M8.838 38.03L0 46.935l8.938 8.837L12.4 52.27l-3.132.01l-5.391-5.351l5.352-5.393l3.128-.012l-3.52-3.496zm3.52 3.495l.716.711l.713-.716l-1.43.005zm.716.711l-4.033 4.065l8.098-.03l-4.065-4.035zm4.065 4.035l.601.598l-.613.621l11.416-.043l-.635-.63l.582-.587l-11.351.041zm11.351-.04l4.17-.016l-2.086-2.07l2.281-.008l2.696 2.675l-2.676 2.696l-2.248.008L33.131 52l5.183-5.223l-5.222-5.183l-4.602 4.636zm2.137 3.285l-.016-.016l-.015.016h.031zm-.016-.016l2.053-2.068l-4.121.015l2.068 2.053zm-13.484-2.01l-8.08.03l4.062 4.033l4.018-4.063zm-4.018 4.063l-.709.718l1.428-.005l-.719-.713z"/>
</svg>