<svg viewBox="0 0 96 96" xmlns="http://www.w3.org/2000/svg">
  <path d="M1.48089 2.30375c-0.19382 -0.78466 0.53393 -1.485157 1.31062 -1.26154L25.4229 7.55786c0.2026 -0.00072 0.403 0.057 0.5741 0.16539L70.631 20.5736c0.185 0.0038 0.3672 0.0562 0.526 0.1512l22.6331 6.5165c0.7776 0.2238 1.0208 1.2058 0.4377 1.7667L25.9292 94.7058c-0.583 0.5608 -1.5543 0.2801 -1.7483 -0.5052L12.8515 48.3357c-0.0152 -0.047 -0.0271 -0.0952 -0.0356 -0.1439L1.48089 2.30375ZM20.867 72.0244l4.9169 19.9051 14.8068 -14.2434 -19.7237 -5.6617Zm15.2518 -15.7415L21.7832 70.101l19.0975 5.4826 -4.7619 -19.3007Zm2.128 -0.1476 4.7467 19.2396L57.29 61.6228l-19.0432 -5.4875Zm-22.9371 -6.6095 4.7674 19.3015 14.3187 -13.8016 -19.0861 -5.4999Zm37.7148 -9.5567L38.4588 54.0092l19.4108 5.5936 -4.8451 -19.6337Zm2.0409 -0.4993 4.8449 19.6327L74.516 45.0533l-19.4506 -5.5835Zm-24.5776 -6.0156L15.8909 47.5066l19.4461 5.6033 -4.8492 -19.6557Zm2.0332 -0.5301 4.7619 19.3003 14.3355 -13.8182 -19.0974 -5.4821ZM9.58977 26.3698l4.84633 19.6207 14.5864 -14.0423 -19.43273 -5.5784Zm60.44013 -2.7241L55.6943 37.4638l19.0974 5.4826 -4.7618 -19.3007Zm2.0487 -0.469 4.8297 19.5753 14.5498 -13.9956 -19.3795 -5.5797Zm-24.6789 -6.0028L33.1284 30.9125l19.0076 5.4562 -4.7363 -19.1948Zm2.0367 -0.5161 4.7686 19.3236 14.3398 -13.8223 -19.1084 -5.5013Zm-24.5891 -6.0276L10.5117 24.4483l19.0975 5.4827 -4.7619 -19.3008Zm2.0506 -0.4615 4.75 19.252 14.3009 -13.7671 -19.0509 -5.4849ZM3.95646 3.56379 8.80168 23.1789 23.3568 9.14928 3.95646 3.56379Z" fill="currentColor"></path>
</svg>