<?xml version="1.0" encoding="UTF-8" standalone="no"?>
<!-- Created with Inkscape (http://www.inkscape.org/) -->

<svg
   version="1.1"
   id="svg1"
   width="119.16"
   height="119.16"
   viewBox="0 0 119.16 119.16"
   sodipodi:docname="cmu-wordmark-square-r-on-w.eps"
   xmlns:inkscape="http://www.inkscape.org/namespaces/inkscape"
   xmlns:sodipodi="http://sodipodi.sourceforge.net/DTD/sodipodi-0.dtd"
   xmlns="http://www.w3.org/2000/svg"
   xmlns:svg="http://www.w3.org/2000/svg">
  <defs
     id="defs1" />
  <sodipodi:namedview
     id="namedview1"
     pagecolor="#ffffff"
     bordercolor="#000000"
     borderopacity="0.25"
     inkscape:showpageshadow="2"
     inkscape:pageopacity="0.0"
     inkscape:pagecheckerboard="0"
     inkscape:deskcolor="#d1d1d1">
    <inkscape:page
       x="0"
       y="0"
       inkscape:label="1"
       id="page1"
       width="119.16"
       height="119.16"
       margin="0"
       bleed="0" />
  </sodipodi:namedview>
  <g
     id="g1"
     inkscape:groupmode="layer"
     inkscape:label="1">
    <g
       id="group-R5">
      <path
         id="path2"
         d="M 893.695,0.00390625 H -0.00390625 V 893.703 H 893.695 V 0.00390625"
         style="fill:#ffffff;fill-opacity:0;fill-rule:nonzero;stroke:none"
         transform="matrix(0.13333333,0,0,-0.13333333,0,119.16)" />
      <path
         id="path3"
         d="m 659.508,558.031 v 70.477 h -32.617 v -4.961 h 9.121 v -65.516 h -11.746 v -4.668 h 46.992 v 4.668 h -11.75"
         style="fill:#c4122e;fill-opacity:1;fill-rule:nonzero;stroke:none"
         transform="matrix(0.13333333,0,0,-0.13333333,0,119.16)" />
      <path
         id="path4"
         d="m 195.602,674.016 h -4.25 c -0.164,-3.614 -2.071,-5.176 -5.692,-5.176 -7.246,0 -17.844,8.808 -30.273,8.808 -35.391,0 -56.7893,-34.863 -56.7893,-65.593 0,-30.899 20.3633,-61.457 54.5433,-61.457 20.711,0 28.476,9.843 34.004,9.843 3.625,0 4.296,-3.191 4.296,-7.078 h 4.676 v 42.293 h -4.676 l -1.035,-5.867 c -2.414,-13.984 -13.269,-34.641 -35.539,-34.641 -19.676,0 -27.273,17.032 -27.273,58.977 0,44.023 10.359,58.828 27.793,58.828 19.676,0 33.215,-22.062 35.965,-39.66 h 4.25 v 40.723"
         style="fill:#c4122e;fill-opacity:1;fill-rule:nonzero;stroke:none"
         transform="matrix(0.13333333,0,0,-0.13333333,0,119.16)" />
      <path
         id="path5"
         d="m 287.215,568 c 0,-4.422 -2.922,-9.531 -4.848,-9.531 -3.062,0 -3.765,3.234 -3.765,8.515 v 39.161 c 0,19.406 -18.215,24.171 -35.747,24.171 -17.031,0 -29.46,-8.339 -29.46,-17.871 0,-5.957 3.41,-11.066 11.074,-11.066 6.465,0 10.383,4.25 10.383,10.207 0,8.66 -8.997,8.769 -8.997,8.973 0,3.859 10.008,5.109 15.809,5.109 12.766,0 14.465,-4.707 14.465,-14.934 v -14.296 l -16.68,-1.356 c -15.5,-1.191 -32.351,-5.285 -32.351,-22.988 0,-14.817 13.281,-20.774 26.382,-20.774 6.653,0 18.403,2.551 22.825,10.723 3.066,-7.148 9.367,-10.723 17.031,-10.723 11.055,0 18.203,6.641 18.203,16.68 z m -31.086,5.625 c -0.332,-9.023 -5.441,-16.426 -13.445,-16.426 -11.575,0 -12.09,9.778 -12.09,17.246 0,9.024 1.023,14.981 12.09,16.172 l 13.445,1.367 v -18.359"
         style="fill:#c4122e;fill-opacity:1;fill-rule:nonzero;stroke:none"
         transform="matrix(0.13333333,0,0,-0.13333333,0,119.16)" />
      <path
         id="path6"
         d="m 677.762,265.355 v 70.489 h -35.246 v -4.973 h 11.75 v -65.516 h -11.75 v -4.66 h 46.992 v 4.66 h -11.746"
         style="fill:#c4122e;fill-opacity:1;fill-rule:nonzero;stroke:none"
         transform="matrix(0.13333333,0,0,-0.13333333,0,119.16)" />
      <path
         id="path7"
         d="m 235.77,520.336 0.105,4.812 h -38.906 l -28.211,-80.703 -27.453,80.813 H 98.5898 v -4.922 h 11.5232 v -97.227 c 0,-7.316 -1.797,-13 -11.5232,-13 v -4.707 h 29.4412 v 4.707 h -0.515 c -9.192,0 -12.762,0.743 -12.762,14.532 v 96.535 h 0.34 l 40.683,-115.774 h 4.602 l 39.668,113.731 h 0.332 V 410.109 h -11.352 v -4.707 h 46.743 v 4.707 h -11.133 v 110.227 h 11.133"
         style="fill:#c4122e;fill-opacity:1;fill-rule:nonzero;stroke:none"
         transform="matrix(0.13333333,0,0,-0.13333333,0,119.16)" />
      <path
         id="path8"
         d="m 262.984,446.605 h 46.993 c -0.176,18.387 -17.2,36.083 -35.079,35.75 -20.089,0 -37.453,-17.363 -37.453,-40.351 0,-22.129 16.172,-38.641 37.961,-38.641 20.946,0 31.336,12.938 35.078,29.785 h -4.636 c -3.743,-15.832 -12.051,-24.824 -25.332,-24.824 -15.832,0 -17.532,12.403 -17.532,23.973 z m 0,4.618 v 11.445 c 0,11.406 4.93,14.98 10.723,14.98 8.176,0 10.723,-5.625 10.723,-14.98 v -11.445 h -21.446"
         style="fill:#c4122e;fill-opacity:1;fill-rule:nonzero;stroke:none"
         transform="matrix(0.13333333,0,0,-0.13333333,0,119.16)" />
      <path
         id="path9"
         d="m 458.57,301.906 h 46.993 c -0.176,18.391 -17.2,36.094 -35.079,35.754 -20.089,0 -37.453,-17.363 -37.453,-40.351 0,-22.129 16.172,-38.645 37.973,-38.645 20.934,0 31.324,12.941 35.066,29.797 h -4.636 c -3.743,-15.84 -12.051,-24.836 -25.325,-24.836 -15.832,0 -17.539,12.402 -17.539,23.977 z m 0,4.629 v 11.438 c 0,11.406 4.942,14.98 10.723,14.98 8.184,0 10.73,-5.617 10.73,-14.98 V 306.535 H 458.57"
         style="fill:#c4122e;fill-opacity:1;fill-rule:nonzero;stroke:none"
         transform="matrix(0.13333333,0,0,-0.13333333,0,119.16)" />
      <path
         id="path10"
         d="m 310.262,524.984 v -4.316 H 322.02 V 410.219 h -11.758 v -4.817 h 46.992 v 4.817 h -11.75 v 114.765 h -35.242"
         style="fill:#c4122e;fill-opacity:1;fill-rule:nonzero;stroke:none"
         transform="matrix(0.13333333,0,0,-0.13333333,0,119.16)" />
      <path
         id="path11"
         d="m 360.531,524.984 v -4.316 h 11.75 V 410.219 h -11.75 v -4.817 h 46.992 v 4.817 h -11.746 v 114.765 h -35.246"
         style="fill:#c4122e;fill-opacity:1;fill-rule:nonzero;stroke:none"
         transform="matrix(0.13333333,0,0,-0.13333333,0,119.16)" />
      <path
         id="path12"
         d="m 488.102,442.855 c 0,23.329 -18.047,39.5 -40.516,39.5 -22.473,0 -40.52,-16.171 -40.52,-39.5 0,-23.32 18.047,-39.492 40.52,-39.492 22.469,0 40.516,16.172 40.516,39.492 m -26.551,-16.828 c 0,-12.773 -5.285,-18.047 -13.965,-18.047 -8.684,0 -13.957,5.274 -13.957,18.047 v 33.508 c 0,12.762 5.273,18.047 13.957,18.047 8.68,0 13.965,-5.285 13.965,-18.047 v -33.508"
         style="fill:#c4122e;fill-opacity:1;fill-rule:nonzero;stroke:none"
         transform="matrix(0.13333333,0,0,-0.13333333,0,119.16)" />
      <path
         id="path13"
         d="M 98.5898,376.117 H 110.492 V 300.48 c 0,-26.386 18.215,-42.382 45.969,-42.382 31.328,0 44.949,16.515 44.949,41.543 v 64.66 c 0,9.871 2.727,11.816 8.852,11.816 h 3.445 v 4.559 h -29.941 v -4.559 h 2.148 c 8.684,0 9.883,-2.629 9.883,-12.5 v -65.676 c 0,-23.164 -14.375,-33.718 -28.953,-33.718 -24.848,0 -29.785,16.687 -31.274,38.484 v 73.41 h 11.164 v 4.559 H 98.5898 v -4.559"
         style="fill:#c4122e;fill-opacity:1;fill-rule:nonzero;stroke:none"
         transform="matrix(0.13333333,0,0,-0.13333333,0,119.16)" />
      <path
         id="path14"
         d="m 393.559,258.781 h 4.601 l 25.195,59.582 c 5.098,11.133 7.833,12.539 11.747,12.715 h 1.535 v 4.656 h -26.563 v -4.707 h 3.242 c 4.93,0 7.2,0.313 7.2,-4.109 0,-2.727 -0.871,-5.41 -2.895,-10.344 l -11.57,-27.246 -18.535,41.699 h 9.453 v 4.707 h -42.735 v -4.707 h 7.996 l 31.329,-72.246"
         style="fill:#c4122e;fill-opacity:1;fill-rule:nonzero;stroke:none"
         transform="matrix(0.13333333,0,0,-0.13333333,0,119.16)" />
      <path
         id="path15"
         d="m 583.258,258.781 h 4.035 c 0.848,2.727 2.605,4.082 6.004,4.082 4.433,0 9.707,-4.082 19.238,-4.082 16.184,0 27.235,13.957 27.235,27.922 0,20.77 -14.293,22.305 -32.508,24.852 -9.532,1.367 -14.934,2.726 -14.934,10.215 0,8.007 6.985,11.359 16.176,11.359 12.769,0 17.715,-8.469 21.973,-19.531 h 4.019 v 24.179 h -3.855 c 0,-2.043 -1.758,-3.742 -4.993,-3.742 -5.457,0 -9.878,3.742 -17.714,3.742 -17.02,0 -25.36,-14.472 -25.36,-25.371 0,-21.965 16.68,-23.84 29.617,-25.363 12.27,-1.531 16.692,-2.313 16.692,-10.145 0,-9.023 -7.488,-13.136 -16.692,-13.136 -12.925,0 -21.836,11.183 -24.898,23.613 h -4.035 v -28.594"
         style="fill:#c4122e;fill-opacity:1;fill-rule:nonzero;stroke:none"
         transform="matrix(0.13333333,0,0,-0.13333333,0,119.16)" />
      <path
         id="path16"
         d="m 348.016,265.355 v 70.489 H 312.77 v -4.973 h 11.75 v -65.516 h -11.75 v -4.66 h 46.992 v 4.66 h -11.746"
         style="fill:#c4122e;fill-opacity:1;fill-rule:nonzero;stroke:none"
         transform="matrix(0.13333333,0,0,-0.13333333,0,119.16)" />
      <path
         id="path17"
         d="m 324.535,359.34 c 0,-6.524 5.219,-11.731 11.731,-11.731 6.523,0 11.726,5.207 11.726,11.731 0,6.512 -5.203,11.726 -11.726,11.726 -6.512,0 -11.731,-5.214 -11.731,-11.726"
         style="fill:#c4122e;fill-opacity:1;fill-rule:nonzero;stroke:none"
         transform="matrix(0.13333333,0,0,-0.13333333,0,119.16)" />
      <path
         id="path18"
         d="m 654.234,359.34 c 0,-6.524 5.204,-11.731 11.731,-11.731 6.512,0 11.726,5.207 11.726,11.731 0,6.512 -5.214,11.726 -11.726,11.726 -6.527,0 -11.731,-5.214 -11.731,-11.726"
         style="fill:#c4122e;fill-opacity:1;fill-rule:nonzero;stroke:none"
         transform="matrix(0.13333333,0,0,-0.13333333,0,119.16)" />
      <path
         id="path19"
         d="m 492.059,594.582 h 46.992 c -0.168,18.391 -17.199,36.086 -35.071,35.754 -20.085,0 -37.453,-17.363 -37.453,-40.352 0,-22.129 16.172,-38.644 37.961,-38.644 20.946,0 31.328,12.941 35.078,29.785 h -4.636 c -3.742,-15.828 -12.051,-24.824 -25.332,-24.824 -15.832,0 -17.539,12.402 -17.539,23.976 z m 0,4.621 v 11.445 c 0,11.407 4.937,14.969 10.73,14.969 8.176,0 10.723,-5.613 10.723,-14.969 v -11.445 h -21.453"
         style="fill:#c4122e;fill-opacity:1;fill-rule:nonzero;stroke:none"
         transform="matrix(0.13333333,0,0,-0.13333333,0,119.16)" />
      <path
         id="path20"
         d="m 697.613,594.582 h 46.992 c -0.175,18.391 -17.199,36.086 -35.078,35.754 -20.089,0 -37.453,-17.363 -37.453,-40.352 0,-22.129 16.172,-38.644 37.973,-38.644 20.933,0 31.324,12.941 35.066,29.785 h -4.64 c -3.739,-15.828 -12.047,-24.824 -25.328,-24.824 -15.825,0 -17.532,12.402 -17.532,23.976 z m 0,4.621 v 11.445 c 0,11.407 4.942,14.969 10.723,14.969 6.102,0 10.723,-3.523 10.723,-14.969 v -11.445 h -21.446"
         style="fill:#c4122e;fill-opacity:1;fill-rule:nonzero;stroke:none"
         transform="matrix(0.13333333,0,0,-0.13333333,0,119.16)" />
      <path
         id="path21"
         d="m 297.691,265.305 v 45.968 c 0,18.387 -7.832,26.973 -24.003,26.973 -11.407,0 -22.977,-6.543 -27.579,-16.418 v 0 13.789 h -35.246 v -4.597 h 11.739 v -65.715 h -11.739 v -4.598 h 45.293 v 4.598 h -10.047 v 44.922 c 1.465,6.32 9.473,20.91 18.77,20.91 6.18,0 9.324,-2.141 9.324,-13.567 v -52.265 h -9.707 v -4.598 h 44.942 v 4.598 h -11.747"
         style="fill:#c4122e;fill-opacity:1;fill-rule:nonzero;stroke:none"
         transform="matrix(0.13333333,0,0,-0.13333333,0,119.16)" />
      <path
         id="path22"
         d="m 574.879,410.004 v 45.965 c 0,18.379 -7.832,26.972 -24.004,26.972 -11.414,0 -22.98,-6.543 -27.578,-16.425 h -0.012 v 13.789 h -35.23 v -4.59 h 11.734 v -65.711 h -11.734 v -4.602 h 45.281 v 4.602 h -10.051 v 44.922 c 1.469,6.316 9.477,20.906 18.781,20.906 6.18,0 9.317,-2.137 9.317,-13.562 v -52.266 h -9.707 v -4.602 h 44.953 v 4.602 h -11.75"
         style="fill:#c4122e;fill-opacity:1;fill-rule:nonzero;stroke:none"
         transform="matrix(0.13333333,0,0,-0.13333333,0,119.16)" />
      <path
         id="path23"
         d="m 454.586,557.98 v 45.958 c 0,18.39 -7.82,26.984 -23.992,26.984 -11.418,0 -22.981,-6.555 -27.59,-16.426 v 0 13.789 h -35.242 v -4.59 h 11.746 V 557.98 h -11.746 v -4.597 h 45.293 v 4.597 h -10.051 v 44.922 c 1.465,6.321 9.473,20.899 18.777,20.899 6.184,0 9.321,-2.129 9.321,-13.555 V 557.98 h -9.707 v -4.597 h 44.941 v 4.597 h -11.75"
         style="fill:#c4122e;fill-opacity:1;fill-rule:nonzero;stroke:none"
         transform="matrix(0.13333333,0,0,-0.13333333,0,119.16)" />
      <path
         id="path24"
         d="m 636.09,651.789 c 0,-6.512 5.215,-11.726 11.726,-11.726 6.528,0 11.731,5.214 11.731,11.726 0,6.516 -5.203,11.731 -11.731,11.731 -6.511,0 -11.726,-5.215 -11.726,-11.731"
         style="fill:#c4122e;fill-opacity:1;fill-rule:nonzero;stroke:none"
         transform="matrix(0.13333333,0,0,-0.13333333,0,119.16)" />
      <path
         id="path25"
         d="m 792.027,335.813 v -4.942 c 7.254,0.031 10.442,-0.664 10.442,-3.953 0,-2.727 -0.871,-5.41 -2.895,-10.344 l -11.57,-27.246 -18.457,41.535 h 9.668 v 4.95 h -58.684 v 36.523 h -3.074 c 0,-18.047 -12.258,-36.602 -29.453,-36.602 v -4.871 h 9.031 v -52.675 c 0,-16.172 13.957,-19.407 18.723,-19.407 10.39,0 17.363,4.25 22.637,13.106 l -3.641,2.004 c -2.043,-3.059 -4.77,-7.149 -9.016,-7.149 -3.41,0 -5.207,2.422 -5.207,8.035 v 56.086 h 23.735 l 31.113,-71.738 -10.766,-25.363 -0.027,-0.059 -0.012,-0.008 v 0.008 c -0.23,-0.488 -0.711,-0.828 -1.289,-0.828 -0.625,0 -1.121,0.41 -1.324,0.957 -0.012,0.027 -0.012,0.059 -0.023,0.078 -1.383,4.93 -5.84,8.524 -11.239,8.524 -6.515,0 -11.726,-5.215 -11.726,-11.727 0,-4.59 2.605,-8.477 6.406,-10.41 0,0 -0.039,-0.012 -0.051,-0.012 0.117,-0.058 0.242,-0.105 0.371,-0.164 0.227,-0.109 0.449,-0.215 0.684,-0.312 1.316,-0.539 2.746,-0.871 4.265,-0.899 9.883,-0.832 14.946,6.453 18.43,13.895 0.789,1.691 1.504,3.379 2.168,4.992 1.492,3.601 4.102,9.785 7.18,17.019 v 0 l 2.957,6.934 h -0.012 l 23.945,56.613 c 5.102,11.133 7.075,12.559 13.254,12.559 h 0.02 v 4.891 h -26.563"
         style="fill:#c4122e;fill-opacity:1;fill-rule:nonzero;stroke:none"
         transform="matrix(0.13333333,0,0,-0.13333333,0,119.16)" />
      <path
         id="path26"
         d="m 350.609,631.117 c -10.894,0 -19.246,-7.48 -22.468,-16.008 h -0.34 v 12.969 h -34.906 v -4.765 h 11.75 v -65.508 h -11.75 v -4.657 h 50.902 v 4.657 h -15.656 v 36.679 c 0,10.95 2.863,22.161 10.058,28.34 0.43,0.305 0.985,0.391 1.477,0.149 0.562,-0.285 0.828,-0.871 0.758,-1.457 l 0.019,-0.02 c -0.469,-1.328 -0.84,-2.918 -0.918,-4.851 -0.23,-6.184 4.942,-11.067 11.582,-11.067 8.176,0 12.942,5.957 12.942,12.434 0,8.172 -5.45,13.105 -13.45,13.105"
         style="fill:#c4122e;fill-opacity:1;fill-rule:nonzero;stroke:none"
         transform="matrix(0.13333333,0,0,-0.13333333,0,119.16)" />
      <path
         id="path27"
         d="m 587.125,605.402 c 0,-19.793 -4.59,-20.449 -10.723,-20.449 -6.816,0 -10.39,1.309 -10.39,20.957 0,13.801 1.535,19.66 10.39,19.66 7.996,0 10.559,-0.527 10.723,-20.109 z m -2.891,-58.164 c 17.024,0 21.551,-0.711 21.551,-11.101 0,-12.422 -15.222,-23.84 -32.422,-23.84 -15.32,0 -22.675,9.406 -23.008,17.57 0,7.5 3.723,12.43 8.325,17.371 z m 22.625,78.332 c 0.332,0.086 0.762,0.282 1.028,0.02 0.246,-0.266 0.246,-0.598 0.058,-0.93 l -0.019,-0.027 c -1.028,-1.738 -1.426,-3.906 -0.617,-6.25 0.785,-2.297 2.777,-4.102 5.136,-4.641 4.864,-1.101 9.114,2.492 9.114,7.141 0,3.015 -1.875,5.281 -4.024,6.64 -2.148,1.348 -4.719,1.973 -7.5,1.973 -4.531,0 -9.172,-2.433 -12.5,-5.332 -0.012,0.008 -0.019,0.02 -0.019,0.027 -0.762,0.547 -1.575,1.075 -2.422,1.575 -4.688,2.722 -10.801,4.55 -18.86,4.55 -14.304,0 -29.629,-9.355 -29.629,-24.855 0,-9.363 5.11,-16.688 14.133,-20.77 v -0.343 c -6.64,-0.848 -17.031,-5.438 -17.031,-19.578 0,-8.508 3.914,-14.981 11.074,-17.024 v -0.34 c -6.816,-1.875 -14.648,-8.683 -14.648,-16.855 0,-12.598 14.812,-22.305 33.719,-22.305 23.664,0 39.152,16.004 39.152,36.777 0,16.512 -8.164,24.004 -24.856,23.661 h -28.257 c -4.258,0 -7.102,0.175 -7.102,4.777 0,4.246 6.531,8.848 12.996,8.848 1.137,0 2.981,-0.871 3.457,-1.028 2.055,-0.664 4.27,-1.015 6.992,-1.015 14.641,0 30.305,8.339 30.305,24.511 0,5.012 -2.18,11.848 -6.223,16.094 -0.242,0.254 -0.23,0.656 0.039,0.871 1.641,1.309 3.547,2.403 4.446,2.899 0.73,0.41 1.308,0.703 2.004,0.918 l 0.054,0.011"
         style="fill:#c4122e;fill-opacity:1;fill-rule:nonzero;stroke:none"
         transform="matrix(0.13333333,0,0,-0.13333333,0,119.16)" />
      <path
         id="path28"
         d="m 565.191,338.891 c -10.898,0 -19.25,-7.493 -22.48,-16.008 h -0.344 v 12.961 h -34.89 v -4.766 h 11.75 v -65.5 h -11.75 v -4.668 h 50.898 v 4.668 h -15.664 v 36.672 c 0,10.945 2.859,22.148 10.051,28.32 0.418,0.293 0.965,0.391 1.465,0.145 0.554,-0.281 0.82,-0.867 0.757,-1.453 l 0.024,-0.051 c -0.449,-1.316 -0.813,-2.891 -0.891,-4.805 -0.234,-6.172 4.942,-11.054 11.582,-11.054 8.172,0 12.942,5.957 12.942,12.421 0,8.176 -5.453,13.118 -13.45,13.118"
         style="fill:#c4122e;fill-opacity:1;fill-rule:nonzero;stroke:none"
         transform="matrix(0.13333333,0,0,-0.13333333,0,119.16)" />
    </g>
  </g>
</svg>
