<svg xmlns="http://www.w3.org/2000/svg" id="logo" viewBox="10 0 500 262.62"><path d="M168.79 100.12h28.88a213.4 213.4 0 0 1-60.56 70.42C85.39 209 30.85 212.39 10.17 212.62v-25c19.44-.31 66.79-3.79 111.57-36.8A187.19 187.19 0 0 0 168.79 100.12Z M247.64.12h25c0 17.45-1.67 110.49-76.82 185.65S27.61 262.64 10.17 262.62v-25c15.77 0 100-1.49 168-69.51S247.65 15.9 247.64.12Z M272.7 262.62h-25c0-17.44 1.67-110.48 76.82-185.64S492.73.11 510.17.12v25c-15.77 0-100 1.5-168 69.52S272.69 246.85 272.7 262.62Z M351.66 162.5H322.78a213.55 213.55 0 0 1 60.55-70.41C435.05 53.66 489.6 50.23 510.28 50V75c-19.44.31-66.79 3.8-111.57 36.81A187.31 187.31 0 0 0 351.66 162.5Z" fill="white"/></svg>