<?xml version="1.0" encoding="UTF-8"?>
<svg id="Layer_1" data-name="Layer 1" xmlns="http://www.w3.org/2000/svg" viewBox="0 0 566.93 708.66">
  <defs>
    <style>
      .cls-1 {
        fill: #009de0;
        fill-rule: evenodd;
      }

      .cls-2 {
        fill: #46555f;
      }

      .cls-3 {
        fill: #fff;
      }
    </style>
  </defs>
  <g>
    <path class="cls-1" d="M283.27,379.38s-103.39-50.72-103.39-145.4v-107.81h207.17v107.81c0,94.69-103.78,145.4-103.78,145.4"/>
    <polygon class="cls-3" points="338.61 207.94 329.99 207.94 329.99 270.41 311.32 270.41 311.31 207.94 302.71 207.94 302.71 194.93 338.61 194.93 338.61 207.94"/>
    <polygon class="cls-3" points="255.27 270.37 236.61 270.37 236.64 194.94 255.25 194.94 255.27 270.37"/>
    <path class="cls-3" d="M301.92,150.84c-15.44,0-27.96,8-27.96,23.45v119.18c0,13.08,0,19.57-9.3,19.57-8.64,0-9.4-6.46-9.4-15.99h0c0-5.14-4.18-9.32-9.33-9.32s-9.32,4.18-9.32,9.32h-.02c0,13.12,12.62,19.87,28.06,19.87s27.95-8.01,27.95-23.45v-119.18c0-13.08,0-19.57,9.3-19.57,8.64,0,9.4,6.47,9.4,15.98h.01c0,5.15,4.17,9.32,9.31,9.32s9.32-4.17,9.32-9.32h.02c0-13.12-12.62-19.86-28.06-19.86"/>
  </g>
  <g>
    <path class="cls-2" d="M152.55,524.23v25.44c0,5.79-3.35,10.46-12.53,10.46s-12.53-4.67-12.53-10.46v-25.44h4.57v25.17c0,4.35,2.39,6.64,7.97,6.64s7.97-2.28,7.97-6.64v-25.17h4.57Z"/>
    <path class="cls-2" d="M164.77,529.49v30.11h-4.35v-35.37h6.27l15.4,30.27v-30.27h4.35v35.37h-6.27l-15.4-30.11Z"/>
    <path class="cls-2" d="M200.19,559.6h-4.57v-35.37h4.57v35.37Z"/>
    <path class="cls-2" d="M206.4,524.23h4.41l10.36,31.39,10.36-31.39h4.41l-11.68,35.37h-6.16l-11.68-35.37Z"/>
    <path class="cls-2" d="M241.01,524.23h20.82v4.09h-16.25v11.1h15.08v4.09h-15.08v12h16.3v4.09h-20.87v-35.37Z"/>
    <path class="cls-2" d="M281.05,546.8h-8.66v12.8h-4.57v-35.37h13.49c7.59,0,10.25,3.29,10.25,8.71v5.1c0,4.2-1.54,7.06-5.63,8.23l9.19,13.33h-5.26l-8.82-12.8ZM281.16,528.32h-8.76v14.44h8.76c4.35,0,5.84-1.22,5.84-4.67v-5.1c0-3.51-1.49-4.67-5.84-4.67Z"/>
    <path class="cls-2" d="M307.77,560.13c-3.4,0-7.49-.64-10.51-1.86l.74-3.72c3.24,1.01,6.64,1.54,9.88,1.54,5.68,0,6.85-1.49,6.85-5.52,0-4.78-.05-5.2-7.33-6.85-8.55-1.91-9.56-3.56-9.56-10.89,0-6.16,2.55-9.13,11.31-9.13,3.08,0,6.74.42,9.56,1.17l-.37,3.88c-2.81-.64-6.16-1.01-9.08-1.01-5.79,0-6.85,1.17-6.85,5.26,0,4.89,0,5.1,7.01,6.85,9.4,2.34,9.88,3.72,9.88,10.62,0,6.16-1.81,9.67-11.52,9.67Z"/>
    <path class="cls-2" d="M330.15,559.6h-4.57v-35.37h4.57v35.37Z"/>
    <path class="cls-2" d="M349.66,524.23c8.66,0,11.36,4.51,11.36,10.14v15.08c0,5.63-2.71,10.14-11.36,10.14h-12.37v-35.37h12.37ZM341.85,555.51h7.65c5.36,0,6.96-2.23,6.96-6.37v-14.44c0-4.14-1.59-6.37-6.96-6.37h-7.65v27.19Z"/>
    <path class="cls-2" d="M394.42,559.6h-4.62l-2.92-8.5h-15.03l-2.87,8.5h-4.62l11.95-35.37h6.16l11.95,35.37ZM379.4,527.53l-6.32,19.6h12.64l-6.32-19.6Z"/>
    <path class="cls-2" d="M410.94,524.23c8.66,0,11.36,4.51,11.36,10.14v15.08c0,5.63-2.71,10.14-11.36,10.14h-12.37v-35.37h12.37ZM403.13,555.51h7.65c5.36,0,6.96-2.23,6.96-6.37v-14.44c0-4.14-1.59-6.37-6.96-6.37h-7.65v27.19Z"/>
    <path class="cls-2" d="M428.72,524.23h20.82v4.09h-16.25v11.1h15.08v4.09h-15.08v12h16.3v4.09h-20.87v-35.37Z"/>
    <path class="cls-2" d="M195.57,570.74c8.66,0,11.36,4.51,11.36,10.14v15.08c0,5.63-2.71,10.14-11.36,10.14h-12.37v-35.37h12.37ZM187.77,602.02h7.65c5.36,0,6.96-2.23,6.96-6.37v-14.44c0-4.14-1.59-6.37-6.96-6.37h-7.65v27.19Z"/>
    <path class="cls-2" d="M212.09,570.74h20.82v4.09h-16.25v11.1h15.08v4.09h-15.08v12h16.3v4.09h-20.87v-35.37Z"/>
    <path class="cls-2" d="M253.03,602.02h15.35v4.09h-19.91v-35.37h4.57v31.28Z"/>
    <path class="cls-2" d="M277.52,606.11h-4.57v-35.37h4.57v35.37Z"/>
    <path class="cls-2" d="M292.76,606.64c-3.4,0-7.49-.64-10.51-1.86l.74-3.72c3.24,1.01,6.64,1.54,9.88,1.54,5.68,0,6.85-1.49,6.85-5.52,0-4.78-.05-5.2-7.33-6.85-8.55-1.91-9.56-3.56-9.56-10.89,0-6.16,2.55-9.13,11.31-9.13,3.08,0,6.74.42,9.56,1.17l-.37,3.88c-2.81-.64-6.16-1.01-9.08-1.01-5.79,0-6.85,1.17-6.85,5.26,0,4.89,0,5.1,7.01,6.85,9.4,2.34,9.88,3.72,9.88,10.62,0,6.16-1.81,9.67-11.52,9.67Z"/>
    <path class="cls-2" d="M309.22,606.11v-35.37h13.65c5.58,0,8.34,2.5,8.34,7.17v4.09c0,2.71-.9,4.73-4.04,5.89,3.08.53,5.2,2.6,5.2,6.37v4.25c0,4.94-3.45,7.59-8.76,7.59h-14.39ZM326.64,578.01c0-2.28-1.27-3.35-4.04-3.35h-8.82v11.47h8.07c3.45,0,4.78-1.59,4.78-4.14v-3.98ZM327.81,594.42c0-2.81-1.59-4.35-5.1-4.35h-8.92v12.11h9.19c3.24,0,4.83-1.38,4.83-4.04v-3.72Z"/>
    <path class="cls-2" d="M363.39,595.91c0,5.89-3.66,10.73-12.8,10.73s-12.8-4.83-12.8-10.73v-14.98c0-5.89,3.66-10.73,12.8-10.73s12.8,4.83,12.8,10.73v14.98ZM342.36,595.8c0,4.35,2.66,6.8,8.23,6.8s8.23-2.44,8.23-6.8v-14.76c0-4.35-2.66-6.8-8.23-6.8s-8.23,2.44-8.23,6.8v14.76Z"/>
    <path class="cls-2" d="M395.94,606.11h-4.62l-2.92-8.5h-15.03l-2.87,8.5h-4.62l11.95-35.37h6.16l11.95,35.37ZM380.91,574.03l-6.32,19.6h12.64l-6.32-19.6Z"/>
  </g>
  <g>
    <g>
      <path class="cls-2" d="M133.74,450.46h-17.6v-10.5h47.12v10.5h-17.6v52.51h-11.92v-52.51Z"/>
      <path class="cls-2" d="M170.84,439.95h38.6v10.5h-26.68v15.23h24.6v10.5h-24.6v16.27h26.68v10.5h-38.6v-63.02Z"/>
      <path class="cls-2" d="M217.97,457.27c0-11.55,6.72-18.26,22.42-18.26,5.87,0,11.92.76,17.13,2.08l-1.32,10.31c-5.11-.94-11.07-1.61-15.42-1.61-8.23,0-10.88,2.84-10.88,9.56v24.22c0,6.72,2.65,9.56,10.88,9.56,4.35,0,10.31-.66,15.42-1.61l1.32,10.31c-5.2,1.32-11.26,2.08-17.13,2.08-15.71,0-22.42-6.72-22.42-18.26v-28.39Z"/>
      <path class="cls-2" d="M279.55,455.19v47.78h-11.64v-63.02h15.9l23.94,47.88v-47.88h11.64v63.02h-15.9l-23.94-47.78Z"/>
      <path class="cls-2" d="M343.99,502.97h-11.92v-63.02h11.92v63.02Z"/>
      <path class="cls-2" d="M355.78,457.27c0-11.55,6.72-18.26,22.42-18.26,5.87,0,11.92.76,17.13,2.08l-1.32,10.31c-5.11-.94-11.07-1.61-15.42-1.61-8.23,0-10.88,2.84-10.88,9.56v24.22c0,6.72,2.65,9.56,10.88,9.56,4.35,0,10.31-.66,15.42-1.61l1.32,10.31c-5.2,1.32-11.26,2.08-17.13,2.08-15.71,0-22.42-6.72-22.42-18.26v-28.39Z"/>
      <path class="cls-2" d="M450.76,484.52c0,10.5-6.06,19.4-23.84,19.4s-23.84-8.89-23.84-19.4v-26.11c0-10.5,6.06-19.4,23.84-19.4s23.84,8.89,23.84,19.4v26.11ZM415,483.86c0,5.96,3.03,9.56,11.92,9.56s11.92-3.59,11.92-9.56v-24.79c0-5.96-3.03-9.56-11.92-9.56s-11.92,3.6-11.92,9.56v24.79Z"/>
    </g>
    <path class="cls-2" d="M183.74,429.86c4.4-2.72,8.71-5.43,12.46-8.34l4.4,6.93c-4.22,3.09-7.68,5.15-12.74,7.78l-4.12-6.37Z"/>
  </g>
</svg>