<?xml version="1.0" encoding="UTF-8" standalone="no"?>
<!-- Created with Inkscape (http://www.inkscape.org/) -->

<svg
   version="1.1"
   id="svg1"
   width="119.16"
   height="119.16"
   viewBox="0 0 119.16 119.16"
   sodipodi:docname="cmu-wordmark-square-w-on-r.eps"
   xmlns:inkscape="http://www.inkscape.org/namespaces/inkscape"
   xmlns:sodipodi="http://sodipodi.sourceforge.net/DTD/sodipodi-0.dtd"
   xmlns="http://www.w3.org/2000/svg"
   xmlns:svg="http://www.w3.org/2000/svg">
  <defs
     id="defs1" />
  <sodipodi:namedview
     id="namedview1"
     pagecolor="#ffffff"
     bordercolor="#000000"
     borderopacity="0.25"
     inkscape:showpageshadow="2"
     inkscape:pageopacity="0.0"
     inkscape:pagecheckerboard="0"
     inkscape:deskcolor="#d1d1d1">
    <inkscape:page
       x="0"
       y="0"
       inkscape:label="1"
       id="page1"
       width="119.16"
       height="119.16"
       margin="0"
       bleed="0" />
  </sodipodi:namedview>
  <g
     id="g1"
     inkscape:groupmode="layer"
     inkscape:label="1">
    <g
       id="group-R5">
      <path
         id="path3"
         d="m 659.508,556.633 v 70.48 h -32.617 v -4.961 h 9.121 v -65.519 h -11.746 v -4.668 h 46.992 v 4.668 h -11.75"
         style="fill:#ffffff;fill-opacity:1;fill-rule:nonzero;stroke:none"
         transform="matrix(0.13333333,0,0,-0.13333333,0,119.16)" />
      <path
         id="path4"
         d="m 195.602,672.621 h -4.25 c -0.164,-3.613 -2.071,-5.176 -5.692,-5.176 -7.246,0 -17.844,8.809 -30.273,8.809 -35.391,0 -56.7893,-34.863 -56.7893,-65.598 0,-30.898 20.3633,-61.453 54.5433,-61.453 20.711,0 28.476,9.844 34.004,9.844 3.625,0 4.296,-3.195 4.296,-7.082 h 4.676 v 42.297 h -4.676 l -1.035,-5.871 c -2.414,-13.985 -13.269,-34.637 -35.539,-34.637 -19.676,0 -27.273,17.031 -27.273,58.973 0,44.023 10.359,58.828 27.793,58.828 19.676,0 33.215,-22.059 35.965,-39.657 h 4.25 v 40.723"
         style="fill:#ffffff;fill-opacity:1;fill-rule:nonzero;stroke:none"
         transform="matrix(0.13333333,0,0,-0.13333333,0,119.16)" />
      <path
         id="path5"
         d="m 287.215,566.605 c 0,-4.425 -2.922,-9.531 -4.848,-9.531 -3.062,0 -3.765,3.231 -3.765,8.516 v 39.16 c 0,19.402 -18.215,24.168 -35.747,24.168 -17.031,0 -29.46,-8.34 -29.46,-17.871 0,-5.957 3.41,-11.063 11.074,-11.063 6.465,0 10.383,4.246 10.383,10.204 0,8.664 -8.997,8.769 -8.997,8.976 0,3.856 10.008,5.106 15.809,5.106 12.766,0 14.465,-4.707 14.465,-14.93 v -14.297 l -16.68,-1.359 c -15.5,-1.192 -32.351,-5.282 -32.351,-22.989 0,-14.812 13.281,-20.769 26.382,-20.769 6.653,0 18.403,2.547 22.825,10.722 3.066,-7.148 9.367,-10.722 17.031,-10.722 11.055,0 18.203,6.64 18.203,16.679 z m -31.086,5.625 c -0.332,-9.023 -5.441,-16.425 -13.445,-16.425 -11.575,0 -12.09,9.773 -12.09,17.246 0,9.023 1.023,14.98 12.09,16.172 l 13.445,1.367 v -18.36"
         style="fill:#ffffff;fill-opacity:1;fill-rule:nonzero;stroke:none"
         transform="matrix(0.13333333,0,0,-0.13333333,0,119.16)" />
      <path
         id="path6"
         d="m 677.762,263.957 v 70.488 h -35.246 v -4.968 h 11.75 v -65.52 h -11.75 v -4.656 h 46.992 v 4.656 h -11.746"
         style="fill:#ffffff;fill-opacity:1;fill-rule:nonzero;stroke:none"
         transform="matrix(0.13333333,0,0,-0.13333333,0,119.16)" />
      <path
         id="path7"
         d="m 235.77,518.938 0.105,4.816 h -38.906 l -28.211,-80.703 -27.453,80.808 H 98.5898 v -4.921 h 11.5232 v -97.227 c 0,-7.313 -1.797,-12.996 -11.5232,-12.996 v -4.707 h 29.4412 v 4.707 h -0.515 c -9.192,0 -12.762,0.742 -12.762,14.531 v 96.531 h 0.34 l 40.683,-115.769 h 4.602 l 39.668,113.73 h 0.332 V 408.715 h -11.352 v -4.707 h 46.743 v 4.707 h -11.133 v 110.223 h 11.133"
         style="fill:#ffffff;fill-opacity:1;fill-rule:nonzero;stroke:none"
         transform="matrix(0.13333333,0,0,-0.13333333,0,119.16)" />
      <path
         id="path8"
         d="m 262.984,445.207 h 46.993 c -0.176,18.391 -17.2,36.086 -35.079,35.754 -20.089,0 -37.453,-17.363 -37.453,-40.352 0,-22.129 16.172,-38.644 37.961,-38.644 20.946,0 31.336,12.941 35.078,29.785 h -4.636 c -3.743,-15.828 -12.051,-24.824 -25.332,-24.824 -15.832,0 -17.532,12.402 -17.532,23.976 z m 0,4.621 v 11.445 c 0,11.407 4.93,14.981 10.723,14.981 8.176,0 10.723,-5.625 10.723,-14.981 v -11.445 h -21.446"
         style="fill:#ffffff;fill-opacity:1;fill-rule:nonzero;stroke:none"
         transform="matrix(0.13333333,0,0,-0.13333333,0,119.16)" />
      <path
         id="path9"
         d="m 458.57,300.512 h 46.993 c -0.176,18.386 -17.2,36.093 -35.079,35.75 -20.089,0 -37.453,-17.364 -37.453,-40.352 0,-22.129 16.172,-38.64 37.973,-38.64 20.934,0 31.324,12.937 35.066,29.793 h -4.636 c -3.743,-15.84 -12.051,-24.833 -25.325,-24.833 -15.832,0 -17.539,12.403 -17.539,23.973 z m 0,4.629 v 11.433 c 0,11.406 4.942,14.981 10.723,14.981 8.184,0 10.73,-5.614 10.73,-14.981 V 305.141 H 458.57"
         style="fill:#ffffff;fill-opacity:1;fill-rule:nonzero;stroke:none"
         transform="matrix(0.13333333,0,0,-0.13333333,0,119.16)" />
      <path
         id="path10"
         d="M 310.262,523.586 V 519.27 H 322.02 V 408.82 h -11.758 v -4.812 h 46.992 v 4.812 h -11.75 v 114.766 h -35.242"
         style="fill:#ffffff;fill-opacity:1;fill-rule:nonzero;stroke:none"
         transform="matrix(0.13333333,0,0,-0.13333333,0,119.16)" />
      <path
         id="path11"
         d="m 360.531,523.586 v -4.316 h 11.75 V 408.82 h -11.75 v -4.812 h 46.992 v 4.812 h -11.746 v 114.766 h -35.246"
         style="fill:#ffffff;fill-opacity:1;fill-rule:nonzero;stroke:none"
         transform="matrix(0.13333333,0,0,-0.13333333,0,119.16)" />
      <path
         id="path12"
         d="m 488.102,441.457 c 0,23.332 -18.047,39.504 -40.516,39.504 -22.473,0 -40.52,-16.172 -40.52,-39.504 0,-23.32 18.047,-39.492 40.52,-39.492 22.469,0 40.516,16.172 40.516,39.492 m -26.551,-16.824 c 0,-12.774 -5.285,-18.047 -13.965,-18.047 -8.684,0 -13.957,5.273 -13.957,18.047 v 33.504 c 0,12.765 5.273,18.047 13.957,18.047 8.68,0 13.965,-5.282 13.965,-18.047 v -33.504"
         style="fill:#ffffff;fill-opacity:1;fill-rule:nonzero;stroke:none"
         transform="matrix(0.13333333,0,0,-0.13333333,0,119.16)" />
      <path
         id="path13"
         d="m 98.5898,374.719 h 11.9022 v -75.633 c 0,-26.387 18.215,-42.383 45.969,-42.383 31.328,0 44.949,16.512 44.949,41.543 v 64.656 c 0,9.875 2.727,11.817 8.852,11.817 h 3.445 v 4.562 h -29.941 v -4.562 h 2.148 c 8.684,0 9.883,-2.625 9.883,-12.5 v -65.672 c 0,-23.164 -14.375,-33.723 -28.953,-33.723 -24.848,0 -29.785,16.692 -31.274,38.489 v 73.406 h 11.164 v 4.562 H 98.5898 v -4.562"
         style="fill:#ffffff;fill-opacity:1;fill-rule:nonzero;stroke:none"
         transform="matrix(0.13333333,0,0,-0.13333333,0,119.16)" />
      <path
         id="path14"
         d="m 393.559,257.387 h 4.601 l 25.195,59.578 c 5.098,11.133 7.833,12.539 11.747,12.715 h 1.535 v 4.66 h -26.563 v -4.707 h 3.242 c 4.93,0 7.2,0.312 7.2,-4.113 0,-2.723 -0.871,-5.411 -2.895,-10.34 l -11.57,-27.246 -18.535,41.699 h 9.453 v 4.707 h -42.735 v -4.707 h 7.996 l 31.329,-72.246"
         style="fill:#ffffff;fill-opacity:1;fill-rule:nonzero;stroke:none"
         transform="matrix(0.13333333,0,0,-0.13333333,0,119.16)" />
      <path
         id="path15"
         d="m 583.258,257.387 h 4.035 c 0.848,2.722 2.605,4.082 6.004,4.082 4.433,0 9.707,-4.082 19.238,-4.082 16.184,0 27.235,13.953 27.235,27.918 0,20.773 -14.293,22.304 -32.508,24.855 -9.532,1.367 -14.934,2.723 -14.934,10.215 0,8.008 6.985,11.355 16.176,11.355 12.769,0 17.715,-8.464 21.973,-19.531 h 4.019 v 24.18 h -3.855 c 0,-2.039 -1.758,-3.738 -4.993,-3.738 -5.457,0 -9.878,3.738 -17.714,3.738 -17.02,0 -25.36,-14.473 -25.36,-25.371 0,-21.961 16.68,-23.836 29.617,-25.36 12.27,-1.535 16.692,-2.316 16.692,-10.148 0,-9.023 -7.488,-13.133 -16.692,-13.133 -12.925,0 -21.836,11.18 -24.898,23.613 h -4.035 v -28.593"
         style="fill:#ffffff;fill-opacity:1;fill-rule:nonzero;stroke:none"
         transform="matrix(0.13333333,0,0,-0.13333333,0,119.16)" />
      <path
         id="path16"
         d="m 348.016,263.957 v 70.488 H 312.77 v -4.968 h 11.75 v -65.52 h -11.75 v -4.656 h 46.992 v 4.656 h -11.746"
         style="fill:#ffffff;fill-opacity:1;fill-rule:nonzero;stroke:none"
         transform="matrix(0.13333333,0,0,-0.13333333,0,119.16)" />
      <path
         id="path17"
         d="m 324.535,357.941 c 0,-6.523 5.219,-11.726 11.731,-11.726 6.523,0 11.726,5.203 11.726,11.726 0,6.516 -5.203,11.731 -11.726,11.731 -6.512,0 -11.731,-5.215 -11.731,-11.731"
         style="fill:#ffffff;fill-opacity:1;fill-rule:nonzero;stroke:none"
         transform="matrix(0.13333333,0,0,-0.13333333,0,119.16)" />
      <path
         id="path18"
         d="m 654.234,357.941 c 0,-6.523 5.204,-11.726 11.731,-11.726 6.512,0 11.726,5.203 11.726,11.726 0,6.516 -5.214,11.731 -11.726,11.731 -6.527,0 -11.731,-5.215 -11.731,-11.731"
         style="fill:#ffffff;fill-opacity:1;fill-rule:nonzero;stroke:none"
         transform="matrix(0.13333333,0,0,-0.13333333,0,119.16)" />
      <path
         id="path19"
         d="m 492.059,593.188 h 46.992 c -0.168,18.386 -17.199,36.082 -35.071,35.75 -20.085,0 -37.453,-17.364 -37.453,-40.352 0,-22.129 16.172,-38.641 37.961,-38.641 20.946,0 31.328,12.938 35.078,29.785 h -4.636 c -3.742,-15.832 -12.051,-24.824 -25.332,-24.824 -15.832,0 -17.539,12.403 -17.539,23.973 z m 0,4.617 v 11.445 c 0,11.406 4.937,14.973 10.73,14.973 8.176,0 10.723,-5.618 10.723,-14.973 v -11.445 h -21.453"
         style="fill:#ffffff;fill-opacity:1;fill-rule:nonzero;stroke:none"
         transform="matrix(0.13333333,0,0,-0.13333333,0,119.16)" />
      <path
         id="path20"
         d="m 697.613,593.188 h 46.992 c -0.175,18.386 -17.199,36.082 -35.078,35.75 -20.089,0 -37.453,-17.364 -37.453,-40.352 0,-22.129 16.172,-38.641 37.973,-38.641 20.933,0 31.324,12.938 35.066,29.785 h -4.64 c -3.739,-15.832 -12.047,-24.824 -25.328,-24.824 -15.825,0 -17.532,12.403 -17.532,23.973 z m 0,4.617 v 11.445 c 0,11.406 4.942,14.973 10.723,14.973 6.102,0 10.723,-3.528 10.723,-14.973 v -11.445 h -21.446"
         style="fill:#ffffff;fill-opacity:1;fill-rule:nonzero;stroke:none"
         transform="matrix(0.13333333,0,0,-0.13333333,0,119.16)" />
      <path
         id="path21"
         d="m 297.691,263.91 v 45.965 c 0,18.391 -7.832,26.973 -24.003,26.973 -11.407,0 -22.977,-6.543 -27.579,-16.414 v 0 13.789 h -35.246 v -4.602 h 11.739 V 263.91 h -11.739 v -4.601 h 45.293 v 4.601 h -10.047 v 44.922 c 1.465,6.316 9.473,20.906 18.77,20.906 6.18,0 9.324,-2.136 9.324,-13.562 V 263.91 h -9.707 v -4.601 h 44.942 v 4.601 h -11.747"
         style="fill:#ffffff;fill-opacity:1;fill-rule:nonzero;stroke:none"
         transform="matrix(0.13333333,0,0,-0.13333333,0,119.16)" />
      <path
         id="path22"
         d="m 574.879,408.605 v 45.969 c 0,18.379 -7.832,26.973 -24.004,26.973 -11.414,0 -22.98,-6.543 -27.578,-16.426 h -0.012 v 13.789 h -35.23 v -4.59 h 11.734 v -65.715 h -11.734 v -4.597 h 45.281 v 4.597 h -10.051 v 44.922 c 1.469,6.321 9.477,20.911 18.781,20.911 6.18,0 9.317,-2.141 9.317,-13.567 v -52.266 h -9.707 v -4.597 h 44.953 v 4.597 h -11.75"
         style="fill:#ffffff;fill-opacity:1;fill-rule:nonzero;stroke:none"
         transform="matrix(0.13333333,0,0,-0.13333333,0,119.16)" />
      <path
         id="path23"
         d="m 454.586,556.586 v 45.957 c 0,18.387 -7.82,26.98 -23.992,26.98 -11.418,0 -22.981,-6.55 -27.59,-16.425 v 0 13.789 h -35.242 v -4.59 h 11.746 v -65.711 h -11.746 v -4.602 h 45.293 v 4.602 h -10.051 v 44.922 c 1.465,6.316 9.473,20.898 18.777,20.898 6.184,0 9.321,-2.129 9.321,-13.554 v -52.266 h -9.707 v -4.602 h 44.941 v 4.602 h -11.75"
         style="fill:#ffffff;fill-opacity:1;fill-rule:nonzero;stroke:none"
         transform="matrix(0.13333333,0,0,-0.13333333,0,119.16)" />
      <path
         id="path24"
         d="m 636.09,650.395 c 0,-6.516 5.215,-11.731 11.726,-11.731 6.528,0 11.731,5.215 11.731,11.731 0,6.511 -5.203,11.726 -11.731,11.726 -6.511,0 -11.726,-5.215 -11.726,-11.726"
         style="fill:#ffffff;fill-opacity:1;fill-rule:nonzero;stroke:none"
         transform="matrix(0.13333333,0,0,-0.13333333,0,119.16)" />
      <path
         id="path25"
         d="m 792.027,334.418 v -4.941 c 7.254,0.027 10.442,-0.664 10.442,-3.957 0,-2.723 -0.871,-5.411 -2.895,-10.34 l -11.57,-27.246 -18.457,41.531 h 9.668 v 4.953 h -58.684 v 36.523 h -3.074 c 0,-18.046 -12.258,-36.601 -29.453,-36.601 v -4.875 h 9.031 v -52.676 c 0,-16.172 13.957,-19.402 18.723,-19.402 10.39,0 17.363,4.246 22.637,13.105 l -3.641,2 c -2.043,-3.054 -4.77,-7.148 -9.016,-7.148 -3.41,0 -5.207,2.422 -5.207,8.039 v 56.082 h 23.735 l 31.113,-71.738 -10.766,-25.36 -0.027,-0.058 -0.012,-0.012 v 0.012 c -0.23,-0.489 -0.711,-0.832 -1.289,-0.832 -0.625,0 -1.121,0.41 -1.324,0.957 -0.012,0.031 -0.012,0.058 -0.023,0.078 -1.383,4.933 -5.84,8.527 -11.239,8.527 -6.515,0 -11.726,-5.215 -11.726,-11.73 0,-4.59 2.605,-8.477 6.406,-10.411 0,0 -0.039,-0.007 -0.051,-0.007 0.117,-0.059 0.242,-0.11 0.371,-0.168 0.227,-0.106 0.449,-0.215 0.684,-0.313 1.316,-0.535 2.746,-0.867 4.265,-0.898 9.883,-0.828 14.946,6.457 18.43,13.898 0.789,1.688 1.504,3.379 2.168,4.988 1.492,3.606 4.102,9.786 7.18,17.024 v 0 l 2.957,6.933 h -0.012 l 23.945,56.61 c 5.102,11.133 7.075,12.558 13.254,12.558 h 0.02 v 4.895 h -26.563"
         style="fill:#ffffff;fill-opacity:1;fill-rule:nonzero;stroke:none"
         transform="matrix(0.13333333,0,0,-0.13333333,0,119.16)" />
      <path
         id="path26"
         d="m 350.609,629.719 c -10.894,0 -19.246,-7.481 -22.468,-16.004 h -0.34 v 12.969 h -34.906 v -4.766 h 11.75 V 556.41 h -11.75 v -4.66 h 50.902 v 4.66 h -15.656 v 36.68 c 0,10.945 2.863,22.156 10.058,28.34 0.43,0.3 0.985,0.39 1.477,0.144 0.562,-0.281 0.828,-0.867 0.758,-1.453 l 0.019,-0.019 c -0.469,-1.329 -0.84,-2.922 -0.918,-4.856 -0.23,-6.18 4.942,-11.062 11.582,-11.062 8.176,0 12.942,5.957 12.942,12.429 0,8.176 -5.45,13.106 -13.45,13.106"
         style="fill:#ffffff;fill-opacity:1;fill-rule:nonzero;stroke:none"
         transform="matrix(0.13333333,0,0,-0.13333333,0,119.16)" />
      <path
         id="path27"
         d="m 587.125,604.008 c 0,-19.797 -4.59,-20.449 -10.723,-20.449 -6.816,0 -10.39,1.308 -10.39,20.957 0,13.797 1.535,19.656 10.39,19.656 7.996,0 10.559,-0.527 10.723,-20.106 z m -2.891,-58.164 c 17.024,0 21.551,-0.715 21.551,-11.106 0,-12.422 -15.222,-23.836 -32.422,-23.836 -15.32,0 -22.675,9.403 -23.008,17.567 0,7.5 3.723,12.433 8.325,17.375 z m 22.625,78.328 c 0.332,0.09 0.762,0.285 1.028,0.019 0.246,-0.261 0.246,-0.593 0.058,-0.925 l -0.019,-0.032 c -1.028,-1.738 -1.426,-3.906 -0.617,-6.25 0.785,-2.293 2.777,-4.101 5.136,-4.636 4.864,-1.106 9.114,2.488 9.114,7.136 0,3.02 -1.875,5.286 -4.024,6.641 -2.148,1.348 -4.719,1.973 -7.5,1.973 -4.531,0 -9.172,-2.43 -12.5,-5.332 -0.012,0.011 -0.019,0.019 -0.019,0.031 -0.762,0.547 -1.575,1.074 -2.422,1.57 -4.688,2.727 -10.801,4.551 -18.86,4.551 -14.304,0 -29.629,-9.355 -29.629,-24.852 0,-9.367 5.11,-16.691 14.133,-20.773 v -0.34 c -6.64,-0.851 -17.031,-5.441 -17.031,-19.582 0,-8.504 3.914,-14.98 11.074,-17.019 v -0.344 c -6.816,-1.875 -14.648,-8.68 -14.648,-16.856 0,-12.597 14.812,-22.304 33.719,-22.304 23.664,0 39.152,16.007 39.152,36.777 0,16.516 -8.164,24.004 -24.856,23.664 h -28.257 c -4.258,0 -7.102,0.176 -7.102,4.774 0,4.25 6.531,8.847 12.996,8.847 1.137,0 2.981,-0.867 3.457,-1.023 2.055,-0.664 4.27,-1.016 6.992,-1.016 14.641,0 30.305,8.34 30.305,24.512 0,5.008 -2.18,11.844 -6.223,16.094 -0.242,0.253 -0.23,0.652 0.039,0.867 1.641,1.308 3.547,2.402 4.446,2.902 0.73,0.41 1.308,0.703 2.004,0.918 l 0.054,0.008"
         style="fill:#ffffff;fill-opacity:1;fill-rule:nonzero;stroke:none"
         transform="matrix(0.13333333,0,0,-0.13333333,0,119.16)" />
      <path
         id="path28"
         d="m 565.191,337.492 c -10.898,0 -19.25,-7.488 -22.48,-16.004 h -0.344 v 12.957 h -34.89 v -4.765 h 11.75 v -65.496 h -11.75 v -4.668 h 50.898 v 4.668 h -15.664 v 36.668 c 0,10.949 2.859,22.148 10.051,28.32 0.418,0.293 0.965,0.391 1.465,0.148 0.554,-0.285 0.82,-0.871 0.757,-1.457 l 0.024,-0.047 c -0.449,-1.32 -0.813,-2.89 -0.891,-4.804 -0.234,-6.172 4.942,-11.055 11.582,-11.055 8.172,0 12.942,5.957 12.942,12.422 0,8.172 -5.453,13.113 -13.45,13.113"
         style="fill:#ffffff;fill-opacity:1;fill-rule:nonzero;stroke:none"
         transform="matrix(0.13333333,0,0,-0.13333333,0,119.16)" />
    </g>
  </g>
</svg>
