<?xml version="1.0" ?><svg enable-background="new 0 0 515.91 728.5" height="512" id="Layer_1" version="1.1" viewBox="0 0 512.00003 512" width="512" xml:space="preserve" xmlns="http://www.w3.org/2000/svg" xmlns:cc="http://creativecommons.org/ns#" xmlns:dc="http://purl.org/dc/elements/1.1/" xmlns:inkscape="http://www.inkscape.org/namespaces/inkscape" xmlns:rdf="http://www.w3.org/1999/02/22-rdf-syntax-ns#" xmlns:sodipodi="http://sodipodi.sourceforge.net/DTD/sodipodi-0.dtd" xmlns:svg="http://www.w3.org/2000/svg"><defs id="defs7"/><g id="g4934" style="fill-opacity:0" transform="translate(-866.20581,-605.4602)"><path d="m 866.20585,605.46021 0,511.99999 511.99995,0 0,-511.99999 -511.99995,0 z" id="path4232" style="fill-opacity:0;fill-rule:nonzero;stroke:none"/><path d="m 1207.1614,730.42117 c 17.6779,10.2085 40.277,4.1537 50.4789,-13.5199 10.2076,-17.6795 4.157,-40.277 -13.5225,-50.4839 -17.677,-10.2043 -40.2736,-4.1503 -50.4813,13.53 -10.2035,17.6728 -4.1504,40.2695 13.5249,50.4738 z m -75.6494,239.0126 c -16.2541,0 -31.6575,-3.6134 -45.4836,-10.0458 l -25.6841,46.02563 c 21.454,10.623 45.6061,16.625 71.1677,16.625 14.8648,0 29.2388,-2.0597 42.8979,-5.8426 2.4171,-14.8455 11.2321,-28.52813 25.2856,-36.64343 14.0292,-8.0994 30.2656,-8.9023 44.3191,-3.5908 27.3318,-26.8746 45.1162,-63.4392 47.7052,-104.1583 l -52.6794,-0.7635 c -4.8475,55.1561 -51.1198,98.3972 -107.5284,98.3972 z m 0,-215.9486 c 56.4086,0 102.6809,43.2494 107.5284,98.3996 l 52.6794,-0.7719 c -2.5924,-40.7157 -20.3776,-77.2795 -47.7127,-104.1532 -14.0518,5.3081 -30.2858,4.5036 -44.3166,-3.5975 -14.0519,-8.1119 -22.8652,-21.7929 -25.2822,-36.6401 -13.6575,-3.7787 -28.0315,-5.8409 -42.8963,-5.8409 -25.5616,0 -49.712,6.0003 -71.1643,16.6275 l 25.6824,46.0197 c 13.8244,-6.4323 29.2278,-10.0458 45.4819,-10.0458 z m -107.9731,107.9747 c 0,-36.5302 18.1544,-68.7951 45.9115,-88.3329 l -27.0222,-45.2688 c -32.3463,21.6134 -56.41024,54.6509 -66.4048,93.349 11.67676,9.5164 19.13676,24.0087 19.13676,40.2561 0,16.2448 -7.4626,30.7371 -19.13836,40.2518 9.99286,38.7006 34.0568,71.7373 66.4047,93.3507 l 27.0239,-45.2705 c -27.7571,-19.5353 -45.9115,-51.8002 -45.9115,-88.3354 z m 183.6276,131.0362 c -17.6804,10.20773 -23.7335,32.80353 -13.5283,50.47633 10.2076,17.6795 32.8026,23.7368 50.483,13.5291 17.6744,-10.2051 23.7301,-32.8026 13.5224,-50.4805 -10.2035,-17.67113 -32.8027,-23.72843 -50.4771,-13.52493 z M 943.25097,824.50177 c -20.41788,0 -36.9631,16.5427 -36.9631,36.9615 0,20.4128 16.54522,36.958 36.9631,36.958 20.41113,0 36.95799,-16.5452 36.95799,-36.958 0,-20.4188 -16.54686,-36.9615 -36.95799,-36.9615" id="circle-of-friends" style="fill-opacity:0;fill-rule:nonzero;stroke:none"/></g><path d="m 145.08736,68.933052 c -12.41282,0.1488 -27.03792,1.89571 -41.54314,9.726341 -16.5774,8.94916 -27.89145,18.465781 -37.50642,35.980737 -9.61498,17.51558 -11.05374,31.80992 -9.50375,53.01756 1.54999,21.20754 8.09813,36.98689 20.6921,52.509 12.59398,15.52202 25.17319,23.11281 47.86837,25.93665 l 4.76777,-21.07358 -8.51841,12.23722 0.2225,-13.60403 -7.72379,9.56737 -3.36922,-13.00016 -6.26166,10.42551 -3.11494,-14.494 -9.05876,7.31067 2.86066,-11.9512 -11.98298,1.33488 5.53061,-8.3276 -10.93408,0.12714 6.35702,-11.09305 -9.69446,-1.52569 7.72378,-10.10766 -11.85584,-3.5282 9.8216,-9.4084 -9.72625,-7.91444 7.59664,-5.88019 -7.08807,-9.44023 7.56485,-8.83626 -2.82887,-11.63335 6.45237,-5.59418 1.90711,-13.31791 7.21522,-3.6236 6.19809,-10.361837 11.47443,-1.23967 5.65775,-9.34482 11.53799,0.60386 10.87048,-5.911931 11.3155,2.606281 12.8095,-3.845951 9.5036,2.224961 12.3962,1.8118 11.9831,9.56727 -18.3718,-6.42059 -9.2177,4.44991 -7.6603,-4.67236 -5.2445,3.55994 -9.313,0.95345 -8.3277,-0.5403 -6.07097,7.40588 -12.39619,0.12714 -4.44992,10.012357 -10.99764,3.87778 -1.04891,11.47448 -7.88271,6.19804 2.60638,10.80694 -6.80201,11.25192 5.21276,9.82155 -5.14919,8.99524 6.86558,4.48165 -1.55747,14.46228 9.53553,2.38393 2.16139,10.74327 10.39373,-1.08059 6.45238,7.3423 7.97806,-7.7874 c 14.5458,-7.253 20.5125,-11.32384 31.8487,-23.58444 12.9044,-13.95769 20.3173,-26.86936 37.5064,-36.42585 12.3284,-6.85439 22.3864,-9.32214 36.235,-6.92905 13.0026,2.24612 17.3458,10.05996 26.92201,18.27639 1.0151,-1.83764 1.22,-2.3342 2.8924,-3.68708 -0.525,2.38618 -1.3451,4.85667 -1.5574,7.1517 -0.3554,3.85785 0.2817,9.89041 1.0807,13.6675 0.9572,4.52152 1.8933,6.87505 5.5623,9.59921 6.7191,4.98787 11.0098,4.1639 16.1787,7.05619 2.4593,1.37648 5.5749,3.66409 6.4842,6.10274 0.9093,2.43876 -0.6143,5.09366 -2.4793,6.13458 3.2621,0.48547 6.9299,-3.18522 5.4035,-6.96089 -0.7518,-1.85818 -4.338,-2.70229 -5.4353,-4.57705 -1.0949,-1.87415 -1.088,-3.78574 -0.5721,-5.68959 0.9322,-3.43177 7.7085,-6.56859 10.1076,-9.28126 3.6921,-4.17448 5.1107,-7.65599 3.0197,-13.03189 -2.9365,-7.55214 -14.2839,-13.62803 -21.0736,-16.59183 -3.109,-1.35674 -4.8537,-1.43465 -7.2787,-2.16138 4.9649,2.90978 10.2022,5.22425 12.714,11.72865 2.0971,5.43215 0.2796,7.47555 0.3496,12.20548 0.033,2.19292 2.9453,3.28683 4.2275,4.67246 1.1162,1.20448 1.0189,2.08805 0.1271,3.75064 -0.099,-1.49975 -0.7558,-2.61787 -1.9071,-3.43279 -1.9008,-1.34759 -3.9457,-1.0513 -4.9585,-3.81421 -1.5371,-4.20031 1.5201,-8.15682 -1.9071,-12.87302 -2.5636,-3.5283 -5.9847,-7.49305 -10.5845,-7.59659 -2.1769,-0.0498 -3.8091,0.26567 -6.1345,0.95355 l -3.0832,-3.7188 -0.096,-0.0318 c -6.3057,-5.75478 -10.60671,-10.50698 -19.45251,-14.46217 -8.8457,-3.95447 -13.188,-4.54807 -23.3302,-4.32277 -10.1424,0.22447 -20.2288,1.05811 -31.9758,11.18835 -0.7342,0.63306 -1.547,1.38309 -2.4157,2.22486 -0.01,0.0102 -0.022,0.0222 -0.031,0.0318 -13.043,12.65017 -40.0369,46.98806 -46.9149,51.58719 -7.34128,4.90955 -8.97559,6.57723 -18.14924,6.57957 -9.17365,0 -23.46873,-12.99375 -24.02954,-29.21058 -0.56156,-16.21752 -0.78393,-21.97474 10.48909,-41.51124 11.27378,-19.53742 31.69819,-25.532236 46.85129,-27.557737 15.1537,-2.0256 24.2312,3.312371 35.4403,3.337391 11.2084,0.0255 22.2887,-1.924501 25.5553,-10.838671 -1.5987,0.95192 -3.7346,2.03221 -9.758,1.71639 -6.0234,-0.31581 -14.3802,-7.27843 -23.7753,-11.951201 -9.3951,-4.67205 -19.8376,-5.21367 -33.2472,-5.46704 -1.6762,-0.0317 -3.4077,-0.053 -5.181,-0.0318 z m 225.92851,1.97078 c -0.9815,-0.006 -1.9564,0.0185 -2.9242,0.0317 -8.5741,0.11727 -14.3262,1.75932 -19.4525,3.6235 -8.9643,3.259781 -16.1239,10.376191 -25.2374,13.890141 -2.9721,1.14518 -5.3514,1.18648 -7.692,-0.0637 2.292,4.5854 4.7731,6.627171 10.4891,8.295971 4.1349,1.20681 13.9955,0.43624 20.7875,-0.19071 7.2911,-0.67344 11.1185,-2.837981 21.0417,-2.701691 9.6911,0.133141 17.3515,3.829061 21.5503,6.229877 8.663,4.9536 14.881,10.42959 20.2789,19.13453 2.9646,4.78008 5.0536,10.19809 6.516,15.70195 1.4624,5.50375 2.0995,11.64871 2.1931,17.03682 0.094,5.3879 -0.3349,10.21741 -1.6528,15.06603 -3.0825,11.35152 -9.87,22.88966 -23.8388,21.10532 -8.5482,-1.09259 -21.43,-17.12601 -25.746,-23.01242 -8.7087,-11.88021 -17.6955,-25.03833 -28.6383,-34.93178 -3.7529,-3.39201 -8.2834,-6.19266 -13.1273,-8.13699 -0.062,-0.0251 -0.1281,-0.0387 -0.1907,-0.0636 l -4.3228,-1.46212 c -0.1392,-0.039 -0.2736,-0.0895 -0.4131,-0.12714 -2.2221,-0.59878 -4.4641,-1.00257 -6.7067,-1.20783 -16.8293,-1.54013 -21.8191,1.63696 -34.4868,12.07834 2.5773,0.82173 5.0826,1.2892 7.7237,2.47924 5.8614,2.64116 11.2167,6.0471 15.8925,10.42551 4.8996,4.58906 7.1047,7.50943 7.2789,14.08075 0.1156,4.36397 -3.4793,7.85047 -6.7703,10.99775 -2.0133,1.92736 -4.6628,3.68495 -6.2934,5.18093 -2.161,1.98523 -4.8446,4.17997 -2.1296,7.34231 1.0212,1.18851 2.7958,2.06842 4.2909,3.17851 2.3734,1.76156 1.2831,8.30766 -1.8435,10.0441 -4.0008,2.21956 -8.779,1.98603 -12.0783,-0.98529 4.1645,-0.62319 6.8147,-1.17051 6.7067,-4.57706 -0.062,-1.97464 -2.59,-3.64465 -5.0539,-4.76776 -5.9419,-2.70891 -10.4236,-2.2926 -16.3376,-6.54773 -5.9731,-4.29989 -6.109,-6.66247 -7.7237,-13.41333 -2.8801,0.30127 -5.5256,0.37746 -9.37661,1.65283 -3.851,1.27445 -8.1051,4.30284 -11.6016,5.05389 -8.8053,1.8947 -10.565,1.34301 -15.3839,0.0953 -8.4843,-2.19598 -19.508,1.54369 -30.482,5.05378 -1.8246,0.58363 -9.208,0.0372 -14.1762,1.77997 -7.673,2.69212 -18.4469,9.19378 -24.6652,14.43054 -9.4216,7.9355 -21.8014,31.70221 -28.79729,58.96132 -0.73506,8.2864 1.62819,13.87946 -3.59172,17.9268 -5.21991,4.04734 -5.09567,14.41467 -6.86558,17.32293 -1.7699,2.90745 -3.81851,1.60563 -7.62843,5.68949 -3.80992,4.08385 -5.75362,3.40299 -5.65775,11.12478 3.28337,-2.15874 8.09753,-4.67988 12.30084,-4.83133 3.72242,-0.13467 3.73206,4.77285 13.28617,-4.67246 5.10956,-5.05328 14.93006,-5.209 21.74096,-7.43762 6.8118,-2.22872 19.1104,-6.82123 31.4037,-20.56501 12.2935,-13.74368 18.1493,-28.19029 20.5332,-49.10794 0.3798,3.70853 1.0477,7.88688 -0.5403,18.11741 -1.588,10.23063 -5.0173,21.70877 2.1931,35.47218 l 4.5135,8.58208 c -2.6746,-3.65025 -7.8991,-9.61548 -9.472,-13.85831 l -3.6235,-9.78981 c -8.1166,12.74374 -9.9888,15.02647 -21.2641,24.15668 -0.449,5.66416 -0.58,11.58503 1.2714,17.00498 1.6535,4.84029 -0.5195,10.32207 0,13.98545 l 0.445,1.46211 c 1.4587,3.22916 4.5558,1.39946 5.5941,4.92674 1.0638,3.61354 -0.5372,10.74917 1.1125,14.27146 1.6496,3.5223 5.6986,1.40526 7.6602,2.54281 1.9616,1.13837 2.606,2.69894 3.6553,4.19564 1.0485,1.49598 -0.4173,5.01809 1.7164,6.16632 2.1329,1.14904 5.4407,0.20057 7.6602,1.30324 2.2196,1.10256 2.5661,3.72775 2.0343,6.10274 -0.5327,2.37478 -2.8997,3.46574 -3.9414,5.88019 -1.0409,2.41516 -0.9331,4.10786 0.3179,6.32529 1.2509,2.21814 4.0414,3.42598 6.802,4.54522 2.7605,1.11934 6.6231,0.48659 9.4719,2.03424 2.8489,1.54776 5.4249,4.65579 6.9292,6.89742 1.5043,2.24083 1.9204,3.80984 1.8435,6.16621 -0.077,2.35586 -1.0307,5.0665 -2.2885,7.34241 -1.2578,2.27592 -4.0466,5.06199 0.286,9.40839 4.3328,4.3456 4.1611,2.457 6.6432,5.2763 -0.2702,-4.8768 -2.2678,-8.8519 -0.7947,-12.5233 1.4739,-3.67141 5.9001,-4.29267 8.2324,-5.94387 2.3322,-1.6518 3.6604,-3.92009 5.4987,-5.88019 -0.026,2.52247 0.2551,5.22059 -0.032,7.11986 -0.5844,3.86172 -1.7181,7.295 4.0367,7.9144 2.5925,0.2785 5.0594,-1.4066 7.78741,-2.41562 -1.4291,2.55912 -3.91741,4.62942 -4.29111,7.69202 -0.3736,3.0613 0.073,6.4018 2.1932,9.4401 2.12081,3.0369 5.77191,5.3029 8.45491,7.0882 2.6822,1.7857 4.1367,1.9267 6.198,2.8924 0.1017,3.0101 -0.502,6.1917 -0.1588,9.0269 0.3431,2.8353 1.2216,5.3484 2.8606,7.692 1.6119,2.3033 4.204,3.6499 6.6431,5.3399 l 0.063,-0.032 c -1.3764,-3.116 -4.0735,-6.0966 -4.0366,-9.3767 0.038,-3.3244 1.0479,-5.6636 4.2909,-8.6138 3.2431,-2.9507 10.8504,-5.5224 14.4304,-8.3912 3.5802,-2.8693 4.7222,-4.6201 6.0075,-7.4059 1.2852,-2.7857 0.9386,-7.2856 1.176,-9.7898 1.1787,3.5078 1.3336,4.5942 1.7164,8.2641 0.385,3.6707 -2.142,8.8207 -3.2103,11.538 4.4286,-2.1391 7.2582,-5.5585 8.6773,-8.8998 0.9497,0.563 0.4454,2.1103 0.7947,5.0856 1.5781,-1.5706 3.3696,-2.7768 4.9585,-4.2593 1.5902,-1.4806 3.3429,-2.7955 4.132,-4.863 0.7876,-2.0674 0.4596,-4.241 -0.1271,-6.643 -0.5867,-2.4023 -3.2585,-5.19163 -4.7042,-7.81927 -1.4442,-2.62662 0.2571,-5.22577 0.1589,-8.39127 -2.8922,-0.49676 -5.3529,-1.94067 -8.6773,-1.46201 -3.326,0.47785 -7.1219,4.18404 -10.5209,4.22737 -3.3991,0.0437 -5.3187,-3.12989 -8.1052,-4.00492 -2.7865,-0.87503 -5.6213,-0.78644 -8.4231,-1.1761 3.5489,-3.39974 17.3414,-5.01137 26.7631,-6.54763 8.2902,-1.35227 16.5198,-2.13891 24.9195,-2.2568 3.7513,-0.0529 8.552,1.1937 11.1566,0.445 2.6068,-0.74718 2.0557,-2.51494 2.8288,-4.44992 2.1625,-5.40865 1.1133,-10.22331 -0.063,-15.67011 -7.5407,-0.88418 -15.4146,-1.98207 -23.0125,-1.39854 -7.428,0.57071 -16.2088,4.11569 -23.8705,4.35461 -6.6612,0.20688 -16.5298,-1.28117 -22.2496,-4.76777 -6.9898,-4.26032 -12.4153,-13.39959 -14.3351,-16.33755 -3.1266,-4.78536 -7.07201,-14.17473 -9.47201,-18.4672 -2.3984,-4.29236 -2.899,-5.51861 -4.8949,-7.31047 -1.9958,-1.79126 -4.7557,-1.92684 -7.1199,-2.8925 2.7257,0.27849 5.7246,-0.56165 8.2006,0.85825 3.7202,2.13433 7.8883,10.96235 10.20311,14.81176 2.4525,-8.2209 1.867,-11.44772 8.9634,-16.08316 -5.7191,6.41001 -5.8531,11.27003 -7.247,18.81678 4.7557,7.8054 11.3729,20.22988 20.0246,23.67986 3.1251,1.2472 8.4773,2.02967 11.8558,2.4474 10.5144,1.30192 20.6641,-2.02722 30.9905,-4.57705 7.5483,-1.86429 15.1987,-1.11151 24.3791,-0.57203 3.1168,0.18257 10.4612,-1.67886 11.9831,-4.83135 0.8217,-1.70073 0.7669,-3.74993 -0.4133,-5.56244 -1.1817,-1.81251 -4.3204,-2.69141 -6.0074,-4.32278 -1.6869,-1.63146 -2.6764,-3.58739 -4.0048,-5.37163 -7.0121,1.34525 -12.7858,1.86083 -17.9904,2.00241 3.7329,-1.53789 7.3349,-2.38993 11.2201,-3.90951 3.8853,-1.51959 8.3068,-4.0332 11.4426,-6.10274 3.1357,-2.07046 5.1369,-3.28053 7.406,-5.68959 2.2674,-2.41058 5.162,-4.87293 6.8337,-7.81913 1.6732,-2.94631 1.9407,-6.23884 2.0343,-9.88512 0.068,-2.64778 -0.024,-6.06724 -0.6039,-8.8681 l -0.6039,-2.12965 c -0.091,-0.23953 -0.1504,-0.48201 -0.2543,-0.69917 -1.4047,-2.93633 -4.1172,-3.85063 -6.2935,-4.54532 -2.1769,-0.6947 -3.6801,1.06574 -5.9437,1.30314 -2.2653,0.2375 -4.3853,1.66737 -7.6603,0.12714 -3.2749,-1.54013 -7.1457,-4.65995 -10.4574,-9.31299 -3.3098,-4.65374 -5.6839,-12.266 -9.0587,-18.11751 -5.8172,-10.08671 -13.06,-19.51453 -19.9927,-28.86087 -0.5707,-2.3048 -1.4311,-5.48708 -1.7164,-8.61372 -0.4977,-5.44812 -0.6101,-11.12173 1.0807,-16.43295 1.2958,-4.06859 3.2091,-8.34366 7.4694,-10.01225 1.7045,-0.66805 3.8484,-0.94603 5.3717,-0.38142 1.5249,0.56379 3.0146,2.30347 2.4157,4.29093 -0.6582,2.18539 -2.1815,2.23422 -3.2103,3.33749 -1.7463,1.87191 -2.4234,3.22855 -3.0831,5.56234 1.887,-0.0305 4.4256,-0.15358 5.9756,0.25428 2.0225,0.53267 3.9001,1.87029 4.9266,4.73604 -2.4136,-2.14054 -3.5988,-3.13427 -6.6113,-3.21035 -1.3802,-0.0346 -3.0498,0.4695 -4.5771,0.69927 -0.5706,1.85666 -0.9105,4.12566 -1.7164,5.56245 -0.8057,1.43648 -2.367,1.08669 -2.9559,2.76525 -0.5889,1.67561 -0.6464,4.40842 -0.3497,6.6113 4.1912,-1.78515 7.8368,-3.21096 12.3962,-3.49636 1.8278,-0.11483 4.67,0.17057 6.516,0.25428 1.5721,-2.31477 3.5884,-4.16014 4.3227,-6.80201 0.4863,-1.7524 0.2567,-9.87139 -0.6039,-11.98304 -2.5072,-6.14505 -4.9722,-6.42862 -8.423,-9.94869 -2.5042,-2.55287 -2.5887,-6.41896 -3.3375,-10.7752 -0.2746,-1.60024 -1.062,-3.62513 -1.4303,-5.27623 -4.5107,-0.7601 -9.3681,-1.02241 -14.5576,-0.76285 2.5164,-2.41373 4.9675,-4.60889 5.6895,-8.23239 0.7207,-3.6235 0.121,-8.09823 -1.9388,-11.34723 -2.0598,-3.2492 -5.3394,-6.06195 -8.3595,-8.70922 -3.0216,-2.64706 -7.3723,-4.82706 -10.2348,-6.99272 3.7231,-1.33305 7.5413,-3.29803 11.1883,-4.00483 9.5009,-1.84302 17.6947,0.97563 26.8585,6.5159 5.3279,3.22255 9.7186,6.27921 15.2886,12.11007 5.5684,5.83016 12.4721,16.54301 17.8632,22.88529 5.3911,6.34238 9.759,11.34723 14.4622,15.12971 4.7041,3.78329 8.9656,4.84924 13.4451,7.27884 l 6.961,7.40598 5.6576,-6.96099 9.0907,1.01713 1.8753,-10.20297 8.3594,-2.28853 -1.3667,-13.76301 6.00741,-4.25921 -4.51361,-8.55014 4.57711,-9.37666 -5.97561,-10.67979 2.2885,-10.29837 -6.8973,-5.8802 -0.89,-10.93407 -9.6627,-3.68708 -3.8777,-9.535526 -10.8388,-0.0954 -5.3081,-7.088131 -7.3106,0.50856 -8.1369,-0.85815 -4.6088,-3.40095 -6.675,4.41807 -8.0733,-4.19563 -16.0834,6.0709 10.4892,-9.09043 10.8387,-1.74824 8.3277,-2.09781 11.2202,3.68707 9.8851,-2.51097 9.5355,5.62591 10.0759,-0.5403 4.9585,8.868 10.0441,1.176101 5.4034,9.885106 6.32531,3.4328 1.6845,12.65047 5.626,5.3399 -2.4792,11.09295 6.6113,8.39126 -6.1981,8.96351 6.6431,5.62591 -8.4866,7.53302 8.5819,8.96351 -10.3618,3.33738 6.7384,9.59911 -8.4549,1.46211 5.5624,10.58439 -9.5673,-0.12714 4.7995,7.91454 -10.48901,-1.2714 2.511,11.37907 -7.9145,-6.96099 -2.7335,13.79483 -5.4671,-9.91695 -2.9559,12.36436 -6.7385,-9.12238 0.1906,12.96832 -7.4694,-11.66508 c 1.5736,6.60937 1.2532,13.85709 5.5942,20.08819 13.45,-1.82015 22.2435,-5.21418 32.54791,-15.12971 4.6926,-4.51532 9.8507,-11.4879 14.2079,-18.81679 0.063,-0.10649 0.1279,-0.21125 0.1908,-0.31785 l 4.1956,-7.7873 c 0.031,-0.063 0.064,-0.12785 0.096,-0.19081 2.2413,-4.5678 4.0092,-8.95018 4.9584,-12.68221 3.466,-13.62802 3.5724,-38.69799 0.159,-52.57257 -3.2856,-13.35869 -7.5635,-19.73992 -15.1934,-30.64084 -7.2926,-7.745396 -14.45571,-15.931407 -23.71161,-21.454997 -12.7378,-7.600861 -28.8546,-10.011441 -43.5774,-10.107561 z m -39.8585,101.871218 c -1.8977,0.85001 -4.4966,1.78525 -4.9585,4.00492 -0.4619,2.21957 0.4234,5.48514 2.0342,7.1517 2.696,2.7857 6.6936,5.80696 8.2642,10.2347 1.009,2.84134 1.3193,12.35429 0.445,14.9391 -0.907,2.68368 -3.0154,4.31525 -4.7678,6.10275 0.9245,0.36443 1.2765,0.44397 2.4475,1.33487 1.171,0.891 2.7912,1.78057 3.7188,3.90962 0.9291,2.12975 0.8654,5.42879 0.6674,6.77017 -0.8142,-0.23882 -1.9206,-0.0721 -2.7652,-0.79457 -0.8424,-0.72216 -1.3352,-2.35129 -2.4157,-3.05137 -1.082,-0.69928 -1.9831,-0.54783 -3.1785,-0.69928 0.6142,1.74702 0.9211,3.46962 0.6357,5.05378 -0.6193,3.45853 -2.652,5.21205 -5.9437,5.62602 -1.4374,0.18034 -3.7394,-0.28103 -4.9904,-0.50856 0.5799,1.2951 1.5809,2.4237 2.1614,3.71891 2.7835,-0.40268 4.8286,-0.34898 6.3253,-1.04896 1.4967,-0.70009 3.1014,-2.25995 5.0221,-2.92423 1.9212,-0.66429 3.6513,-0.65747 5.753,-0.98529 -1.6558,1.42672 -2.7645,2.86422 -4.4182,4.29094 1.213,3.52535 2.4433,7.02812 3.6554,10.55265 2.5712,1.60858 4.9605,2.46388 8.2005,4.44992 3.2415,1.98674 7.1264,5.53142 11.3474,7.46945 4.2206,1.93823 6.7461,3.01434 11.1565,3.84605 4.4095,0.8317 7.9295,4.40973 12.269,4.99031 4.3395,0.58047 12.4212,0.67608 15.7654,0.34958 3.7971,-0.37054 8.7431,-2.32117 9.1859,-6.48416 -3.1837,0.78522 -8.0336,0.0784 -10.489,-5.91203 -1.0897,-2.66018 -0.5572,-7.53424 -2.225,-10.67979 -1.6672,-3.14647 -3.9929,-4.16553 -6.7702,-8.04158 -2.7774,-3.87606 -7.3346,-9.99995 -9.8852,-15.19339 -2.5492,-5.19241 -3.1517,-11.08054 -5.3081,-15.73357 -2.1565,-4.65233 -5.3935,-8.39686 -7.9145,-11.98304 -5.5045,-7.83744 -9.9388,-13.21019 -19.0074,-17.16396 -4.3616,-1.90151 -9.3536,-2.38708 -14.0173,-3.59166 z m -99.51911,3.87778 c 0.2617,5.54098 0.2113,9.53523 -1.78,14.74829 -2.2425,5.86748 -4.5062,9.32824 -10.8705,12.93649 -2.193,1.24262 -4.3802,1.66828 -6.1982,2.32036 1.0601,-1.44574 2.5752,-2.0909 3.1786,-4.35461 0.6019,-2.26523 0.1506,-6.75828 0.2861,-8.67728 0.1355,-1.9183 0.3343,-1.85808 0.5085,-2.79709 -4.3867,-1.17336 -6.1372,1.67551 -8.7091,6.96099 -0.9626,1.97769 -0.016,3.14799 -1.0489,4.44991 -1.031,1.30182 -2.6798,1.10185 -4.3546,2.352 -1.6747,1.24943 -3.3289,3.66429 -4.8949,4.95847 -3.2134,2.65643 -7.5567,4.28362 -11.2837,6.07101 2.5453,-1.87791 7.4609,-4.74091 9.0588,-7.46955 0.8477,-1.44645 0.7466,-4.16644 2.066,-5.46704 1.3187,-1.301 1.7616,-2.21102 3.4646,-2.54281 1.703,-0.33168 1.0399,-2.30876 1.5892,-3.87768 0.5494,-1.56901 1.6329,-2.69171 2.7971,-4.2593 1.1642,-1.56739 2.628,-3.91308 4.9267,-4.76767 2.2988,-0.8552 5.8882,0.0789 7.6284,-0.41325 1.7395,-0.49229 0.7386,-1.75169 2.0025,-2.51098 1.2654,-0.75938 3.7134,-0.4277 5.4035,-1.23967 2.9957,-1.44045 4.428,-3.84645 6.2299,-6.42059 z m 25.68231,6.89742 c 2.4167,1.3011 5.4623,2.99797 7.5966,3.05137 2.1345,0.0528 2.7177,-1.38868 3.9732,-2.22506 1.9754,6.44124 4.2334,13.51259 7.5966,19.35718 1.4092,2.44862 2.2979,1.32165 3.3692,3.78238 1.0699,2.46011 1.5596,7.4729 2.5747,10.61632 1.0166,3.14332 2.3253,5.4408 3.4963,8.16873 -2.9736,-4.21323 -6.7975,-9.58914 -8.4548,-13.09547 -1.6558,-3.50551 -0.5982,-3.78095 -1.939,-7.11986 -1.3406,-3.33891 -4.0453,-8.56947 -6.0709,-12.84118 -1.4503,0.19244 -3.2519,0.46726 -4.3546,0.12714 -1.1025,-0.34013 -0.8792,-1.49894 -1.8752,-2.2568 -0.9976,-0.75796 -2.6715,-0.47469 -4.0685,-1.68456 -1.3971,-1.20905 -1.7172,-3.68422 -1.8436,-5.88019 z m -5.84841,16.43285 c 1.1976,-0.007 2.269,0.0979 3.0831,0.31785 1.48691,0.40105 1.80011,0.99658 2.70181,2.25669 3.0999,4.32817 3.0734,8.08542 3.8777,13.1273 0.7907,1.23194 1.6479,2.06669 2.2886,3.33749 0.6391,1.27059 0.9972,3.26039 1.176,4.8948 -0.8111,-1.1764 -0.3275,-2.65225 -2.5746,-3.52809 -2.2485,-0.87575 -5.6799,-0.0625 -8.70911,0.25428 2.2082,1.59332 3.28481,3.11555 3.36921,6.48416 0.099,3.95518 -3.24201,6.81717 -6.73841,7.08803 -4.8539,0.37684 -7.3498,-0.6827 -9.3131,-4.83134 -0.8598,-1.81699 -0.2462,-4.01337 -0.3179,-5.78479 -5.8323,0.40543 -5.7177,0.22814 -9.9805,3.78238 2.317,3.39445 3.7678,5.34325 7.5967,7.37414 2.1474,1.13989 4.5861,2.24897 7.247,2.70179 2.6617,0.45262 7.026,0.87411 9.8216,0.44489 2.79641,-0.42913 4.37961,-1.22991 6.45241,-3.14668 2.0735,-1.91748 2.2736,-4.66361 3.0831,-6.83374 -0.1841,2.08866 -0.4324,4.74661 -1.2078,6.26161 -2.3588,4.60584 -6.4448,5.99218 -11.31551,6.00734 -4.675,0.0153 -10.4625,-1.0573 -14.8119,-2.86056 -3.4773,-1.44116 -9.2481,-5.54465 -10.6162,-9.09064 -0.9352,-2.42279 -0.1879,-5.3752 -0.286,-8.07332 4.815,-3.20211 5.9999,-2.43194 11.6969,-3.36932 2.3832,-0.39261 4.019,-1.26195 6.2934,-1.46201 2.2744,-0.19936 5.1172,0.40705 7.247,0.28601 2.1299,-0.12094 3.6416,-0.68005 5.46711,-1.01712 -0.3386,-3.20801 -0.026,-9.10997 -2.98781,-11.25193 -1.9129,-1.38339 -9.7573,-0.32558 -11.8559,0.12714 -4.7222,1.01814 -10.2131,3.83191 -14.78,5.59418 4.3767,-3.05737 8.1637,-5.89128 13.4133,-7.46945 2.3666,-0.71168 7.0868,-1.60075 10.6798,-1.62109 z m 67.54331,20.66032 c -3.0262,0.19701 -3.7451,-0.18176 -6.1663,1.52568 1.3126,2.04239 2.6303,4.0923 3.9413,6.13458 -0.1156,-4.03147 0.2725,-4.86622 2.225,-7.66026 z m -49.8391,12.61873 c -0.385,3.66216 0.3579,7.67756 -1.4303,10.33011 -1.7882,2.65256 -4.9315,2.18438 -7.5331,2.95597 2.0241,-1.54318 4.4127,-2.19485 5.9756,-4.51339 1.5622,-2.31843 2.0245,-5.88131 2.9878,-8.77269 z m 63.8562,4.48165 c -0.8423,0.72664 -1.4736,1.49436 -2.8288,2.09782 -1.3536,0.60336 -3.1936,0.75888 -4.9902,1.20783 2.5194,3.92173 5.1512,7.85952 7.5648,11.98294 2.4152,4.1227 4.529,8.65094 6.8338,12.96832 -0.1088,-2.47456 0.01,-5.12518 -0.3497,-7.43761 -0.3597,-2.31172 -1.4087,-4.31688 -2.4474,-7.7874 -1.037,-3.47053 -2.3124,-8.20687 -3.7825,-13.0319 z m -49.521,28.0663 c 4.1372,0.0208 9.9294,0.65157 13.7947,2.41567 3.9575,1.80641 6.6643,4.61957 10.1394,6.67477 3.4744,2.05612 5.941,3.41571 9.2495,5.72132 5.0784,3.53908 8.049,7.45389 11.5698,9.78981 1.693,1.1224 4.0774,0.93474 6.3252,1.62109 -1.7479,0.51894 -4.0264,1.11121 -5.9121,0.50857 -2.3511,-0.75176 -5.6455,-2.90908 -7.4694,-4.44992 -3.2233,-2.72263 -4.9053,-4.04907 -8.4231,-6.10274 -2.1001,-1.2236 -5.543,-2.65866 -7.8509,-4.1639 -2.3094,-1.50514 -6.3314,-4.82594 -8.5502,-5.94376 -2.8207,-1.41991 -7.8891,-2.18987 -11.0294,-2.09782 -4.3266,0.12633 -10.5738,0.84014 -13.9219,3.87778 -3.326,3.01933 -4.5963,5.67809 -3.846,9.5991 1.2525,-1.44268 2.0827,-3.28164 3.3375,-4.3545 2.5992,-2.22038 5.569,-2.328 8.8044,-1.90711 3.635,0.47327 5.4741,2.58838 6.6749,6.03907 -0.8081,-0.59339 -2.292,-1.88453 -3.4646,-2.28853 -2.7522,-0.94969 -4.828,-0.6833 -7.406,0.69937 -3.0436,1.63279 -2.2315,4.0507 -2.6699,6.73845 -0.2009,1.23936 -0.6513,2.24987 -0.9853,3.36912 -1.1445,-0.3028 -2.2172,-0.79448 -3.0832,-1.65283 0.036,1.25564 -0.13,2.3702 0.1271,3.78248 0.2557,1.41146 0.9277,3.09673 1.3986,4.64062 -2.1191,-2.11999 -4.2888,-4.09676 -5.6578,-6.83374 -1.3703,-2.73871 -2.2764,-5.7974 -2.1295,-8.80453 0.2747,-5.58899 2.2704,-10.29105 7.2787,-13.03189 2.5902,-1.41685 6.5998,-3.25642 10.2667,-3.68707 0.8805,-0.10334 2.0536,-0.1659 3.4328,-0.15888 z m 3.9095,21.48673 c 0.9139,-0.033 1.7964,-10e-4 2.5428,0.0317 2.1892,0.0976 4.8518,0.65452 6.3888,1.65282 1.5378,0.99831 3.1816,1.82147 4.5771,3.24208 3.4819,3.5459 6.0927,7.80002 7.247,12.71405 0.7358,3.13274 0.8446,7.16044 1.1124,10.83877 -1.0538,-3.39974 -1.7725,-6.93475 -3.2738,-9.98063 -2.3672,-4.80285 -6.3852,-9.50634 -11.3791,-11.66508 -1.6481,-0.71371 -2.7482,-0.57132 -3.6553,-0.44499 0.4056,0.68107 1.0828,1.2593 1.1125,2.25679 0.03,0.9976 -0.1838,2.93023 -1.8753,3.75054 -2.7271,1.32318 -5.7765,0.39994 -7.8827,-1.46201 -2.1237,-1.87659 -2.8281,-5.05958 -1.7164,-7.7874 0.9936,-2.43805 4.0605,-3.04791 6.802,-3.14668 z m -55.17901,8.2323 c 2.4316,0.009 5.4794,0.58159 8.0099,0.76284 -2.9097,0.74494 -5.8311,1.48001 -8.7409,2.22496 -0.2708,0.98996 -0.1304,2.14389 -0.7947,2.9878 -0.6649,0.84461 -1.929,1.13877 -2.8923,1.71639 0.094,-2.60089 -1.0523,-5.27429 0.9535,-6.89732 0.7522,-0.60895 2.0057,-0.80027 3.4645,-0.79467 z" id="path4-4-0" style="fill:currentColor"/></svg>